#N canvas 3 89 1277 706 10;
#X declare -lib zexy;
#X obj 443 15 declare -lib zexy;
#N canvas 1 82 945 322 miniscope~ 0;
#X obj 19 163 inlet~;
#N canvas 0 50 450 300 (subpatch) 0;
#X array waveform 1024 float 0;
#X coords 0 1 1023 -1 632 211 1;
#X restore 202 128 graph;
#X obj 39 210 bang~;
#X obj 19 247 tabwrite~ waveform;
#X obj 87 208 block~ 1024 1 1;
#X connect 0 0 3 0;
#X connect 2 0 3 0;
#X coords 0 -1 1 1 636 231 2 200 110;
#X restore 217 444 pd miniscope~;
#N canvas 412 346 867 422 trisaw_spectrum~ 0;
#N canvas 0 50 450 300 (subpatch) 0;
#X array spectrum 128 float 1;
#A 0 0 0 0 0 0 0 0 0 0 0 0 0 0 0 0 0 0 0 0 0 0 0 0 0 0 0 0 0 0 0 0
0 0 0 0 0 0 0 0 0 0 0 0 0 0 0 0 0 0 0 0 0 0 0 0 0 0 0 0 0 0 0 0 0 0
0 0 0 0 0 0 0 0 0 0 0 0 0 0 0 0 0 0 0 0 0 0 0 0 0 0 0 0 0 0 0 0 0 0
0 0 0 0 0 0 0 0 0 0 0 0 0 0 0 0 0 0 0 0 0 0 0 0 0 0 0 0 0;
#X coords 0 250 127 0 392 181 1;
#X restore 106 118 graph;
#N canvas 1 82 450 300 fft_analysis 0;
#X obj 92 36 inlet~;
#X obj 78 74 rfft~;
#X obj 189 120 bang~;
#X obj 231 97 block~ 1024 4 1;
#X obj 93 175 clip~ 0 250;
#X obj 93 211 tabwrite~ spectrum;
#X obj 61 106 *~;
#X obj 111 105 *~;
#X obj 68 138 sqrt~;
#X connect 0 0 1 0;
#X connect 1 0 6 0;
#X connect 1 0 6 1;
#X connect 1 1 7 0;
#X connect 1 1 7 1;
#X connect 2 0 5 0;
#X connect 4 0 5 0;
#X connect 6 0 8 0;
#X connect 7 0 8 0;
#X connect 8 0 4 0;
#X restore 166 53 pd fft_analysis;
#X text 434 298 ------5012;
#X text 104 298 0----------------------------Hz------------------------
;
#X obj 166 17 receive~ wave;
#X obj 276 39 send~ wave2;
#X connect 4 0 1 0;
#X connect 4 0 5 0;
#X coords 0 -1 1 1 404 216 2 100 100;
#X restore 868 180 pd trisaw_spectrum~;
#X obj 66 533 mix~;
#X obj 116 74 > 0;
#X obj 116 218 f;
#N canvas 3 89 450 300 init 0;
#X obj 56 135 outlet;
#X obj 55 67 loadbang;
#X msg 56 100 pitch 135 \, aa 1.5 \, ad 119 \, as 100 \, ar 500 \,
fa 1.453 \, fd 91 \, fs 43 \, fr 290 \, on 1;
#X connect 1 0 2 0;
#X connect 2 0 0 0;
#X restore 126 413 pd init;
#N canvas 408 346 867 422 trisaw_spectrum~ 0;
#N canvas 0 50 450 300 (subpatch) 0;
#X array spectrum_full 512 float 1;
#A 0 0 0 0 0 0 0 0 0 0 0 0 0 0 0 0 0 0 0 0 0 0 0 0 0 0 0 0 0 0 0 0
0 0 0 0 0 0 0 0 0 0 0 0 0 0 0 0 0 0 0 0 0 0 0 0 0 0 0 0 0 0 0 0 0 0
0 0 0 0 0 0 0 0 0 0 0 0 0 0 0 0 0 0 0 0 0 0 0 0 0 0 0 0 0 0 0 0 0 0
0 0 0 0 0 0 0 0 0 0 0 0 0 0 0 0 0 0 0 0 0 0 0 0 0 0 0 0 0 0 0 0 0 0
0 0 0 0 0 0 0 0 0 0 0 0 0 0 0 0 0 0 0 0 0 0 0 0 0 0 0 0 0 0 0 0 0 0
0 0 0 0 0 0 0 0 0 0 0 0 0 0 0 0 0 0 0 0 0 0 0 0 0 0 0 0 0 0 0 0 0 0
0 0 0 0 0 0 0 0 0 0 0 0 0 0 0 0 0 0 0 0 0 0 0 0 0 0 0 0 0 0 0 0 0 0
0 0 0 0 0 0 0 0 0 0 0 0 0 0 0 0 0 0 0 0 0 0 0 0 0 0 0 0 0 0 0 0 0 0
0 0 0 0 0 0 0 0 0 0 0 0 0 0 0 0 0 0 0 0 0 0 0 0 0 0 0 0 0 0 0 0 0 0
0 0 0 0 0 0 0 0 0 0 0 0 0 0 0 0 0 0 0 0 0 0 0 0 0 0 0 0 0 0 0 0 0 0
0 0 0 0 0 0 0 0 0 0 0 0 0 0 0 0 0 0 0 0 0 0 0 0 0 0 0 0 0 0 0 0 0 0
0 0 0 0 0 0 0 0 0 0 0 0 0 0 0 0 0 0 0 0 0 0 0 0 0 0 0 0 0 0 0 0 0 0
0 0 0 0 0 0 0 0 0 0 0 0 0 0 0 0 0 0 0 0 0 0 0 0 0 0 0 0 0 0 0 0 0 0
0 0 0 0 0 0 0 0 0 0 0 0 0 0 0 0 0 0 0 0 0 0 0 0 0 0 0 0 0 0 0 0 0 0
0 0 0 0 0 0 0 0 0 0 0 0 0 0 0 0 0 0 0 0 0 0 0 0 0 0 0 0 0 0 0 0 0 0
0 0 0 0 0;
#X coords 0 250 511 0 392 181 1;
#X restore 106 118 graph;
#N canvas 1 82 450 300 fft_analysis 0;
#X obj 92 36 inlet~;
#X obj 189 120 bang~;
#X obj 231 97 block~ 1024 4 1;
#X obj 93 175 clip~ 0 250;
#X obj 93 211 tabwrite~ spectrum_full;
#X obj 78 74 rfft~;
#X obj 61 106 *~;
#X obj 111 105 *~;
#X obj 68 138 sqrt~;
#X connect 0 0 5 0;
#X connect 1 0 4 0;
#X connect 3 0 4 0;
#X connect 5 0 6 0;
#X connect 5 0 6 1;
#X connect 5 1 7 0;
#X connect 5 1 7 1;
#X connect 6 0 8 0;
#X connect 7 0 8 0;
#X connect 8 0 3 0;
#X restore 166 53 pd fft_analysis;
#X text 398 298 -----------22050;
#X text 104 298 0----------------------------Hz------------------;
#X obj 166 17 receive~ wave2;
#X connect 4 0 1 0;
#X coords 0 -1 1 1 404 216 2 100 100;
#X restore 868 407 pd trisaw_spectrum~;
#X obj 66 573 record_m~;
#X obj 66 648 dac~;
#X msg 45 188 1;
#X obj 1052 57 stepkeys;
#X obj 1052 129 route note;
#X obj 1052 151 s keynote;
#X obj 202 5 r keynote;
#X obj 202 27 spigot;
#X obj 274 8 tgl 33 0 empty empty empty 17 7 0 10 -262144 -1 -1 1 1
;
#X obj 37 122 unpack;
#X floatatom 70 146 5 0 0 0 - - -, f 5;
#X floatatom 32 146 5 0 0 0 - - -, f 5;
#N canvas 433 184 450 300 midi 0;
#X obj 82 75 notein 1;
#X obj 82 120 pack f f f;
#X obj 82 142 route 1;
#X obj 82 98 poly 1 1;
#X obj 82 164 outlet;
#X connect 0 0 3 0;
#X connect 0 1 3 1;
#X connect 1 0 2 0;
#X connect 2 0 4 0;
#X connect 3 0 1 0;
#X connect 3 1 1 1;
#X connect 3 2 1 2;
#X restore 152 27 pd midi;
#X obj 217 51 Sweep_Sync_Wavefolder~;
#X obj 1102 13 loadbang;
#X msg 1267 17 \; pd dsp 1;
#N canvas 433 184 740 310 initchoice 0;
#X obj 178 126 s pd-wavefolder~-help.pd;
#X msg 342 105 on \$1;
#X obj 341 82 == 0;
#X obj 342 127 outlet;
#X obj 180 50 inlet;
#X msg 178 104 vis \$1;
#X obj 460 150 outlet;
#X obj 390 15 loadbang;
#N canvas 41 378 450 300 pulse-dsp-for-graphics 0;
#X obj 129 100 delay 10;
#X floatatom 238 63 5 0 1000 0 - - -, f 5;
#X msg 144 157 \; pd dsp \$1;
#X msg 171 127 1;
#X msg 128 125 0;
#X obj 138 50 bng 15 250 50 0 empty empty empty 17 7 0 10 -262144 -1
-1;
#X floatatom 349 133 0 0 0 0 - - -;
#X msg 191 32 46;
#X msg 345 77 40;
#X obj 349 111 / 26;
#X obj 349 155 * 46;
#X text 183 8 HORIZONTAL;
#X text 331 50 VERTICAL;
#X obj 260 15 loadbang;
#X connect 0 0 4 0;
#X connect 1 0 0 1;
#X connect 3 0 2 0;
#X connect 4 0 2 0;
#X connect 5 0 3 0;
#X connect 5 0 0 0;
#X connect 6 0 10 0;
#X connect 7 0 1 0;
#X connect 8 0 9 0;
#X connect 9 0 6 0;
#X connect 10 0 1 0;
#X connect 13 0 7 0;
#X restore 277 185 pd pulse-dsp-for-graphics;
#X obj 181 80 == 1;
#X obj 454 78 == 2;
#X msg 507 105 vis \$1;
#X obj 507 127 s pd-visualizations;
#X obj 381 148 s wcut;
#X msg 390 38 file patches.dlf \, patch 1;
#X connect 1 0 3 0;
#X connect 1 0 13 0;
#X connect 2 0 1 0;
#X connect 4 0 2 0;
#X connect 4 0 9 0;
#X connect 4 0 10 0;
#X connect 5 0 0 0;
#X connect 7 0 14 0;
#X connect 9 0 5 0;
#X connect 9 0 6 0;
#X connect 10 0 11 0;
#X connect 11 0 12 0;
#X connect 14 0 3 0;
#X restore 807 52 pd initchoice;
#X msg 878 16 0;
#X obj 908 15 loadbang;
#X msg 74 188 0;
#X obj 730 21 r extauto;
#X obj 50 442 vcaeg~;
#N canvas 433 184 450 300 init 0;
#X obj 86 110 loadbang;
#X obj 72 44 r extauto;
#X obj 72 66 route vol;
#X msg 72 88 vol \$1;
#X obj 72 156 outlet;
#X msg 86 130 vol 76;
#X connect 0 0 5 0;
#X connect 1 0 2 0;
#X connect 2 0 3 0;
#X connect 3 0 4 0;
#X connect 5 0 4 0;
#X restore 142 533 pd init;
#X obj 80 384 send~ wave;
#N canvas 433 184 450 300 init 0;
#X obj 75 132 outlet;
#X obj 130 85 r wcut;
#X obj 69 21 loadbang;
#X msg 69 44 file wcut_patches.dlf \, reset;
#X connect 1 0 0 0;
#X connect 2 0 3 0;
#X connect 3 0 0 0;
#X restore 463 249 pd init;
#X obj 807 27 hradio 20 1 0 2 empty empty empty 0 -8 0 10 -262144 -1
-1 0;
#X obj 25 548 mu~;
#X msg 1102 33 pack 1 \, 8ve 2;
#X obj 51 414 send~ wav;
#N canvas 433 184 450 300 pitch 0;
#X obj 63 43 receive~ wav;
#X obj 95 100 unpack f;
#X floatatom 95 122 5 0 0 0 - - -, f 5;
#X obj 71 77 fiddle~ 4096;
#X obj 92 158 outlet;
#X connect 0 0 3 0;
#X connect 1 0 2 0;
#X connect 2 0 4 0;
#X connect 3 2 1 0;
#X restore 494 289 pd pitch;
#X floatatom 494 311 5 0 0 0 - - -, f 5;
#X obj 795 9 r initChoice;
#X obj 611 360 cnv 10 10 60 empty empty empty 20 12 0 14 -1 -66577
0;
#X obj 612 361 cnv 8 8 58 empty empty empty 20 12 0 14 -262144 -66577
0;
#X obj 621 360 cnv 10 10 60 empty empty empty 20 12 0 14 -1 -66577
0;
#X obj 622 361 cnv 8 8 58 empty empty empty 20 12 0 14 -262144 -66577
0;
#X obj 631 360 cnv 10 10 60 empty empty empty 20 12 0 14 -1 -66577
0;
#X obj 632 361 cnv 8 8 58 empty empty empty 20 12 0 14 -262144 -66577
0;
#X obj 641 360 cnv 10 10 60 empty empty empty 20 12 0 14 -1 -66577
0;
#X obj 642 361 cnv 8 8 58 empty empty empty 20 12 0 14 -262144 -66577
0;
#X obj 651 360 cnv 10 10 60 empty empty empty 20 12 0 14 -1 -66577
0;
#X obj 652 361 cnv 8 8 58 empty empty empty 20 12 0 14 -262144 -66577
0;
#X obj 661 360 cnv 10 10 60 empty empty empty 20 12 0 14 -1 -66577
0;
#X obj 662 361 cnv 8 8 58 empty empty empty 20 12 0 14 -262144 -66577
0;
#X obj 671 360 cnv 10 10 60 empty empty empty 20 12 0 14 -1 -66577
0;
#X obj 672 361 cnv 8 8 58 empty empty empty 20 12 0 14 -262144 -66577
0;
#X obj 618 361 cnv 6 6 38 empty empty empty 20 12 0 14 -1 -66577 0
;
#X obj 628 361 cnv 6 6 38 empty empty empty 20 12 0 14 -1 -66577 0
;
#X obj 648 361 cnv 6 6 38 empty empty empty 20 12 0 14 -1 -66577 0
;
#X obj 658 361 cnv 6 6 38 empty empty empty 20 12 0 14 -1 -66577 0
;
#X obj 668 361 cnv 6 6 38 empty empty empty 20 12 0 14 -1 -66577 0
;
#X text 611 405 z;
#X text 621 405 x;
#X text 631 405 c;
#X text 641 405 v;
#X text 651 405 b;
#X text 661 405 n;
#X text 671 405 m;
#X text 616 345 s;
#X text 626 345 d;
#X text 646 345 g;
#X text 656 345 h;
#X text 666 345 j;
#X obj 611 280 cnv 10 10 60 empty empty empty 20 12 0 14 -1 -66577
0;
#X obj 612 281 cnv 8 8 58 empty empty empty 20 12 0 14 -262144 -66577
0;
#X obj 621 280 cnv 10 10 60 empty empty empty 20 12 0 14 -1 -66577
0;
#X obj 622 281 cnv 8 8 58 empty empty empty 20 12 0 14 -262144 -66577
0;
#X obj 631 280 cnv 10 10 60 empty empty empty 20 12 0 14 -1 -66577
0;
#X obj 632 281 cnv 8 8 58 empty empty empty 20 12 0 14 -262144 -66577
0;
#X obj 641 280 cnv 10 10 60 empty empty empty 20 12 0 14 -1 -66577
0;
#X obj 642 281 cnv 8 8 58 empty empty empty 20 12 0 14 -262144 -66577
0;
#X obj 651 280 cnv 10 10 60 empty empty empty 20 12 0 14 -1 -66577
0;
#X obj 652 281 cnv 8 8 58 empty empty empty 20 12 0 14 -262144 -66577
0;
#X obj 661 280 cnv 10 10 60 empty empty empty 20 12 0 14 -1 -66577
0;
#X obj 662 281 cnv 8 8 58 empty empty empty 20 12 0 14 -262144 -66577
0;
#X obj 671 280 cnv 10 10 60 empty empty empty 20 12 0 14 -1 -66577
0;
#X obj 672 281 cnv 8 8 58 empty empty empty 20 12 0 14 -262144 -66577
0;
#X obj 618 281 cnv 6 6 38 empty empty empty 20 12 0 14 -1 -66577 0
;
#X obj 628 281 cnv 6 6 38 empty empty empty 20 12 0 14 -1 -66577 0
;
#X obj 648 281 cnv 6 6 38 empty empty empty 20 12 0 14 -1 -66577 0
;
#X obj 658 281 cnv 6 6 38 empty empty empty 20 12 0 14 -1 -66577 0
;
#X obj 668 281 cnv 6 6 38 empty empty empty 20 12 0 14 -1 -66577 0
;
#X text 549 407 Octave -1:;
#X text 611 325 q;
#X text 621 325 w;
#X text 631 326 e;
#X text 641 325 r;
#X text 651 325 t;
#X text 661 325 y;
#X text 671 325 u;
#X text 617 265 2;
#X text 627 265 3;
#X text 647 265 5;
#X text 657 265 6;
#X text 667 265 7;
#X obj 681 280 cnv 10 10 60 empty empty empty 20 12 0 14 -1 -66577
0;
#X obj 682 281 cnv 8 8 58 empty empty empty 20 12 0 14 -262144 -66577
0;
#X obj 691 280 cnv 10 10 60 empty empty empty 20 12 0 14 -1 -66577
0;
#X obj 692 281 cnv 8 8 58 empty empty empty 20 12 0 14 -262144 -66577
0;
#X obj 701 280 cnv 10 10 60 empty empty empty 20 12 0 14 -1 -66577
0;
#X obj 702 281 cnv 8 8 58 empty empty empty 20 12 0 14 -262144 -66577
0;
#X obj 711 280 cnv 10 10 60 empty empty empty 20 12 0 14 -1 -66577
0;
#X obj 712 281 cnv 8 8 58 empty empty empty 20 12 0 14 -262144 -66577
0;
#X obj 721 280 cnv 10 10 60 empty empty empty 20 12 0 14 -1 -66577
0;
#X obj 722 281 cnv 8 8 58 empty empty empty 20 12 0 14 -262144 -66577
0;
#X obj 688 281 cnv 6 6 38 empty empty empty 20 12 0 14 -1 -66577 0
;
#X obj 698 281 cnv 6 6 38 empty empty empty 20 12 0 14 -1 -66577 0
;
#X obj 718 281 cnv 6 6 38 empty empty empty 20 12 0 14 -1 -66577 0
;
#X text 681 325 i;
#X text 691 325 o;
#X text 701 326 p;
#X text 711 325 [;
#X text 721 325 ];
#X text 687 265 9;
#X text 697 265 0;
#X text 717 265 =;
#X text 687 344 Other keys:;
#X text 687 358 * = Octave up;
#X text 687 369 / = Octave down;
#X text 687 381 > = Channel up;
#X text 687 393 < = Channel down;
#X text 687 405 \, = Velocity up;
#X text 687 416 . = Velocity down;
#X text 555 327 Octave 0:;
#X msg 328 9 1;
#X obj 364 7 loadbang;
#X obj 808 82 wavefolderHelp;
#X text 795 105 <---click and drag the "select" number;
#X text 819 120 to hear different settings;
#X text 553 250 use the qwerty keyboard to play notes:;
#X obj 217 246 Wavecutter_FX~;
#X connect 3 0 8 0;
#X connect 3 0 34 0;
#X connect 4 0 5 0;
#X connect 8 0 9 0;
#X connect 10 0 5 0;
#X connect 11 0 12 0;
#X connect 12 0 13 0;
#X connect 14 0 15 0;
#X connect 15 0 17 0;
#X connect 15 0 21 0;
#X connect 16 0 15 1;
#X connect 17 0 19 0;
#X connect 17 1 4 0;
#X connect 17 1 18 0;
#X connect 20 0 17 0;
#X connect 20 0 21 0;
#X connect 21 0 138 0;
#X connect 21 1 138 1;
#X connect 21 2 138 2;
#X connect 22 0 35 0;
#X connect 22 0 23 0;
#X connect 24 0 21 1;
#X connect 24 1 134 0;
#X connect 25 0 33 0;
#X connect 26 0 25 0;
#X connect 27 0 5 0;
#X connect 28 0 21 1;
#X connect 29 0 3 0;
#X connect 30 0 3 1;
#X connect 32 0 138 3;
#X connect 33 0 24 0;
#X connect 35 0 11 0;
#X connect 37 0 38 0;
#X connect 39 0 33 0;
#X connect 132 0 16 0;
#X connect 133 0 132 0;
#X connect 138 0 1 0;
#X connect 138 0 36 0;
#X connect 138 0 31 0;
#X connect 138 0 29 0;
