#N canvas 125 165 450 300 10;
#X obj 101 114 cnv 16 18 90 empty empty empty 4 6 0 10 -233017 -66577
0;
#X text 100 129 ___;
#X obj 106 119 vu 8 80 empty empty -1 -8 0 8 -128992 -1 0 0;
#X obj 111 14 inlet~;
#X obj 109 35 env~;
#X obj 109 58 - 100;
#X obj 232 49 outlet~;
#X msg 337 37 1;
#X obj 303 9 loadbang;
#X obj 370 20 r \$0-spd;
#X obj 343 59 metro 400;
#X obj 271 117 max;
#X obj 298 116 f;
#X obj 271 96 t f b;
#X msg 325 116 -200;
#X obj 271 137 f;
#X obj 271 157 - 100;
#X connect 3 0 4 0;
#X connect 3 0 6 0;
#X connect 4 0 5 0;
#X connect 4 0 13 0;
#X connect 5 0 2 0;
#X connect 7 0 10 0;
#X connect 8 0 7 0;
#X connect 10 0 14 0;
#X connect 10 0 15 0;
#X connect 11 0 12 1;
#X connect 11 0 15 1;
#X connect 12 0 11 1;
#X connect 13 0 11 0;
#X connect 13 1 12 0;
#X connect 14 0 12 1;
#X connect 15 0 16 0;
#X connect 16 0 2 1;
#X coords 0 -1 1 1 20 106 1 100 100;
