#N canvas 50 242 1098 345 10;
#X declare -lib zexy;
#X obj 155 28 declare -lib zexy;
#X obj 417 178 inlet~;
#X msg 489 113 open \$1;
#X obj 515 27 sel 0 1;
#X msg 524 72 stop;
#X msg 487 72 start;
#X obj 577 40 savepanel;
#X msg 648 119 set \$1;
#X obj 487 55 del 50;
#X msg 727 94 open \$1;
#X symbolatom 727 77 0 0 0 0 - - -;
#X obj 649 29 del 200;
#X obj 554 232 outlet~;
#X obj 101 115 cnv 15 120 48 empty \$0-rcnv-lbl record_m~ 25 8 0 8
-261681 -143491 0;
#X obj 107 138 tgl 22 0 \$0-record \$0-record-set record -4 -6 0 8
-261689 -143491 -143491 0 1;
#X obj 459 0 r \$0-record;
#X obj 949 68 s \$0-record-set;
#X obj 142 138 tgl 22 0 \$0-review \$0-review-set review -4 -6 0 8
-225271 -42246 -42246 0 1;
#X obj 830 65 s \$0-review-set;
#X obj 757 29 r \$0-review;
#X obj 809 90 sel 0 1;
#X obj 842 157 metro 1000;
#X obj 844 121 t b b;
#X obj 842 141 del 50;
#X obj 862 173 cup;
#X msg 790 126 0;
#X obj 860 198 t f f;
#X obj 887 220 % 60;
#X obj 841 224 / 60;
#X obj 840 246 i;
#X obj 704 130 readsf~ 1;
#X obj 487 142 writesf~ 1;
#X obj 868 2 inlet;
#X obj 910 191 outlet;
#X obj 721 53 bng 15 250 50 0 empty empty empty 0 -6 0 10 -262144 -1
-1;
#X obj 653 0 sel 1;
#X msg 577 4 set 1;
#X msg 922 162 file \$1;
#X obj 577 68 makesymbol %s.wav;
#X obj 179 124 nbx 3 14 0 99 0 0 \$0-minutes-out \$0-minutes m 28 8
0 10 -13381 -204786 -204786 0 256;
#X obj 839 268 s \$0-minutes;
#X obj 888 245 s \$0-seconds;
#X obj 179 142 nbx 3 14 0 59 0 0 \$0-seconds-out \$0-seconds s 28 8
0 10 -16662 -203904 -203904 0 256;
#X obj 868 22 route file record review;
#X obj 574 127 t b a;
#X obj 875 89 r \$0-record;
#X msg 893 138 1;
#X obj 593 104 symbol;
#X msg 252 91 set 1;
#X obj 252 113 s \$0-record-set;
#X connect 1 0 12 0;
#X connect 1 0 31 0;
#X connect 2 0 31 0;
#X connect 3 0 4 0;
#X connect 3 0 11 0;
#X connect 3 1 6 0;
#X connect 4 0 31 0;
#X connect 5 0 31 0;
#X connect 6 0 37 0;
#X connect 6 0 38 0;
#X connect 7 0 10 0;
#X connect 8 0 5 0;
#X connect 8 0 48 0;
#X connect 9 0 30 0;
#X connect 10 0 9 0;
#X connect 11 0 10 0;
#X connect 15 0 3 0;
#X connect 15 0 33 0;
#X connect 19 0 30 0;
#X connect 20 0 25 0;
#X connect 21 0 24 0;
#X connect 22 0 23 0;
#X connect 22 1 46 0;
#X connect 23 0 21 0;
#X connect 24 0 26 0;
#X connect 25 0 21 0;
#X connect 26 0 28 0;
#X connect 26 1 27 0;
#X connect 27 0 41 0;
#X connect 28 0 29 0;
#X connect 29 0 40 0;
#X connect 30 0 12 0;
#X connect 32 0 43 0;
#X connect 34 0 10 0;
#X connect 35 0 36 0;
#X connect 35 1 16 0;
#X connect 36 0 16 0;
#X connect 37 0 33 0;
#X connect 38 0 7 0;
#X connect 38 0 44 0;
#X connect 43 0 47 0;
#X connect 43 1 16 0;
#X connect 43 2 18 0;
#X connect 43 3 35 0;
#X connect 44 0 8 0;
#X connect 44 0 22 0;
#X connect 44 1 2 0;
#X connect 45 0 20 0;
#X connect 46 0 24 0;
#X connect 47 0 44 0;
#X connect 48 0 49 0;
#X coords 0 -1 1 1 122 66 1 100 100;
