#N canvas 96 111 1128 637 10;
#X declare -lib moonlib;
#X declare -lib ./lib/wavefolder~;
#X declare -lib ./lib/wavestretcher~;
#X declare -lib zexy;
#X obj 829 159 declare -lib moonlib;
#X obj 831 205 declare -lib ./lib/wavefolder~;
#X obj 831 225 declare -lib ./lib/wavestretcher~;
#X obj 829 179 declare -lib zexy;
#X obj 401 403 cnv 15 332 108 empty empty Sweep_Sync_Wavefolder~ 10
12 0 18 -203904 -91648 0;
#X obj 401 512 cnv 15 523 76 empty empty empty 20 12 0 14 -207552 -45076
0;
#X obj 687 472 cnv 15 46 40 empty empty empty 20 12 0 14 -207552 -45076
0;
#X obj 814 403 cnv 15 110 108 empty empty empty 20 12 0 14 -187264
-66577 0;
#X obj 121 348 wavefolder~;
#X obj 156 165 phasor~;
#X obj 121 205 +~;
#X obj 151 205 line~;
#X obj 195 205 pack f 20;
#X obj 157 324 +~;
#X obj 267 298 *~;
#X text 294 253 phase;
#X text 161 227 phase;
#X msg 202 138 0;
#X text 317 179 CMR;
#X obj 167 68 > 0;
#X obj 135 90 spigot;
#X obj 135 133 mtof;
#X obj 310 58 *;
#X floatatom 464 94 5 0 0 0 - - -, f 5;
#X obj 464 113 t b f;
#X msg 464 135 1000;
#X obj 464 157 /;
#X floatatom 464 179 5 0 0 0 - - -, f 5;
#X obj 310 121 -;
#X floatatom 307 16 5 0 0 0 - - -, f 5;
#X obj 135 111 t f b f;
#X floatatom 310 79 0 0 0 0 - - -;
#X obj 469 270 t b f;
#X obj 310 142 /;
#X floatatom 310 163 0 0 0 0 - - -;
#X obj 310 37 t b f b;
#X obj 261 141 mtof;
#X obj 166 273 pack f 10;
#X obj 166 295 line~;
#X obj 121 227 wrap~;
#X obj 619 496 nbx 3 12 1 99 0 0 empty empty empty 0 -6 0 10 -199801
-50198 -50198 1 256;
#X obj 619 481 nbx 3 12 1 99 0 0 empty empty empty 0 -6 0 10 -204337
-66893 -66893 4 256;
#X obj 424 496 hradio 12 1 0 16 \$0-div-val \$0-div-set div -18 4 0
8 -195704 -50199 -50199 0;
#X obj 424 481 hradio 12 1 0 16 \$0-num-val \$0-num-set num -18 4 0
8 -204336 -66893 -66893 3;
#X obj 424 458 hsl 148 20 10 304 0 0 \$0-tempo \$0-tempo-set tempo
60 10 0 10 -232560 -87053 -87053 6100 1;
#X obj 577 458 nbx 4 20 0.01 1000 1 0 \$0-tempo-num \$0-tempo empty
0 -6 0 14 -232560 -87053 -86853 132 256;
#X obj 200 67 moses 1;
#X obj 247 348 pack f 10;
#X obj 247 370 line~;
#X obj 197 326 +~;
#X text 338 665 PW mod lfo/afo needed;
#X obj 444 530 moonlib/mknob 32 101 0 1 0 0 empty \$0-wphase-set wphas
0 -7 1 8 -207744 -45076 -45076 0 1;
#X floatatom 444 567 5 0 0 0 - - #0-wphase, f 5;
#X obj 484 530 moonlib/mknob 32 101 0 1 0 0 empty \$0-mphase-set mphas
0 -7 1 8 -151276 -13381 -13381 0 1;
#X floatatom 484 567 5 0 0 0 - - #0-mphase, f 5;
#X obj 524 530 moonlib/mknob 32 160 0.1 16 0 0 \$0-CMR_coarse \$0-CMR_coarse-set
CMR 4 -7 1 8 -151276 -13381 -13381 900 1;
#X obj 339 114 * 1;
#X obj 370 114 sel 0;
#X msg 370 136 -1;
#N canvas 1 82 450 300 send 0;
#X obj 51 49 inlet;
#X obj 168 42 inlet;
#X obj 311 44 inlet;
#N canvas 45 82 450 300 divshow 0;
#X obj -50 103 sel 1 2 3 4 5 6 7 8 9 10 11 12 13 14 15 16;
#X msg -50 186 1;
#X msg -33 169 2;
#X msg -16 152 4;
#X msg 1 135 8;
#X msg 189 185 4.5;
#X msg 206 168 9;
#X msg 18 185 1.5;
#X msg 35 168 3;
#X msg 52 151 6;
#X msg 65 134 12;
#X msg 86 185 2.5;
#X msg 103 168 5;
#X msg 120 151 10;
#X msg 137 185 3.5;
#X msg 155 168 7;
#X msg 172 151 14;
#X obj -50 39 inlet;
#X obj -50 225 outlet;
#X obj 272 134 outlet;
#X connect 0 0 1 0;
#X connect 0 1 2 0;
#X connect 0 2 3 0;
#X connect 0 3 4 0;
#X connect 0 4 7 0;
#X connect 0 5 8 0;
#X connect 0 6 9 0;
#X connect 0 7 10 0;
#X connect 0 8 11 0;
#X connect 0 9 12 0;
#X connect 0 10 13 0;
#X connect 0 11 14 0;
#X connect 0 12 15 0;
#X connect 0 13 16 0;
#X connect 0 14 5 0;
#X connect 0 15 6 0;
#X connect 0 16 19 0;
#X connect 1 0 18 0;
#X connect 2 0 18 0;
#X connect 3 0 18 0;
#X connect 4 0 18 0;
#X connect 5 0 18 0;
#X connect 6 0 18 0;
#X connect 7 0 18 0;
#X connect 8 0 18 0;
#X connect 9 0 18 0;
#X connect 10 0 18 0;
#X connect 11 0 18 0;
#X connect 12 0 18 0;
#X connect 13 0 18 0;
#X connect 14 0 18 0;
#X connect 15 0 18 0;
#X connect 16 0 18 0;
#X connect 17 0 0 0;
#X restore 121 133 pd divshow;
#X obj 216 109 + 1;
#X obj 119 112 + 1;
#X msg 215 133 num \$1;
#X msg 63 113 div \$1;
#X msg 286 108 tempo \$1;
#X obj 60 214 outlet;
#X obj 221 214 outlet;
#X symbolatom 126 192 10 0 0 0 - - -, f 10;
#X obj 126 170 s \$0-tcalc;
#X connect 0 0 7 0;
#X connect 0 0 5 0;
#X connect 1 0 4 0;
#X connect 2 0 8 0;
#X connect 3 0 9 0;
#X connect 4 0 6 0;
#X connect 4 0 10 0;
#X connect 5 0 3 0;
#X connect 6 0 12 0;
#X connect 7 0 12 0;
#X connect 8 0 12 0;
#X restore 308 474 pd send;
#X obj 404 530 moonlib/mknob 32 201 -1 1 0 0 empty \$0-shape-set shape
2 -7 1 8 -207744 -45076 -45076 10000 1;
#X floatatom 404 567 5 0 0 0 - - #0-shape, f 5;
#X obj 644 529 moonlib/mknob 32 201 -1 1 0 0 empty \$0-PWL-set PTL
4 -7 1 8 -260909 -86277 -86277 10000 1;
#X floatatom 644 566 5 0 0 0 - - #0-PWL, f 5;
#X obj 669 450 nbx 4 16 0 1e+07 0 0 empty \$0-duration duration 0 -8
0 12 -200249 -13330 -13330 1818.18 256;
#X obj 524 112 s \$0-duration;
#X obj 604 530 moonlib/mknob 32 160 0 1 0 0 empty \$0-depth-set depth
2 -7 1 8 -151276 -13381 -13381 0 1;
#X floatatom 604 567 5 0 0 0 - - #0-depth, f 5;
#X obj 308 319 line~;
#X obj 352 319 pack f 20;
#X obj 684 529 moonlib/mknob 32 201 0 1 0 0 empty \$0-PWM-set PTM 4
-7 1 8 -260909 -86277 -86277 0 1;
#X floatatom 684 566 5 0 0 0 - - #0-PWM, f 5;
#X obj 237 15 r \$0-CMR;
#X obj 354 58 r \$0-direction;
#X obj 352 255 r \$0-mphase;
#X obj 352 298 r \$0-depth;
#X obj 246 323 r \$0-PWL;
#X obj 166 249 r \$0-shape;
#X obj 195 184 r \$0-wphase;
#X obj 462 20 r \$0-tcalc;
#X floatatom 551 567 0 0 99999 0 - #0-CMR-set #0-CMR;
#X obj 564 530 moonlib/mknob 32 201 -100 100 0 0 \$0-CMR_fine \$0-CMR_fine-set
fine 5 -7 1 8 -151276 -13381 -13381 10000 1;
#N canvas 1 82 450 300 CMR 0;
#X obj 185 44 r \$0-CMR_fine;
#X obj 75 44 r \$0-CMR_coarse;
#X obj 103 102 moses 1e-07;
#X obj 104 152 1e-07;
#X obj 103 127 t b;
#X obj 92 76 +;
#X obj 213 117 t b f;
#X obj 126 193 s \$0-CMR-set;
#X obj 201 74 * 0.01;
#X obj 245 249 s \$0-CMR_fine-set;
#X msg 269 225 0;
#X obj 321 91 r \$0-detune_pc;
#X obj 321 113 * 0.01;
#X obj 321 135 s \$0-detune-set;
#X connect 0 0 8 0;
#X connect 1 0 5 0;
#X connect 2 0 4 0;
#X connect 2 1 7 0;
#X connect 3 0 7 0;
#X connect 4 0 3 0;
#X connect 5 0 2 0;
#X connect 6 0 5 0;
#X connect 6 1 5 1;
#X connect 8 0 6 0;
#X connect 10 0 9 0;
#X connect 11 0 12 0;
#X connect 12 0 13 0;
#X restore 787 43 pd CMR;
#X obj 477 204 f;
#X obj 545 195 r \$0-syncSweeps;
#X obj 466 228 spigot;
#X msg 543 283 0;
#X obj 565 245 t b f;
#X obj 545 222 sel 0;
#X obj 407 437 tgl 16 0 \$0-syncSweeps \$0-syncSweeps-set sync_sweeps
22 7 0 10 -262144 -1 -1 1 1;
#X obj 498 437 tgl 15 0 \$0-direction \$0-direction-set direction 17
7 0 10 -262144 -1 -1 1 1;
#N canvas 374 82 627 519 init 0;
#X msg 31 157 0;
#X obj 31 179 s \$0-shape-set;
#X msg 64 133 0;
#X obj 64 155 s \$0-PWL-set;
#X msg 97 111 1;
#X obj 97 133 s \$0-CMR_coarse-set;
#X msg 131 89 0;
#X obj 131 111 s \$0-CMR_fine-set;
#X obj 36 243 s \$0-num-set;
#X msg 36 222 3;
#X obj 73 223 s \$0-div-set;
#X msg 73 202 0;
#X msg 200 156 0;
#X obj 200 272 s \$0-stretch-set;
#X obj 230 249 s \$0-stretch_thresh-set;
#X obj 266 226 s \$0-stretch_mod-set;
#X obj 288 204 s \$0-thresh_mod-set;
#X msg 324 130 132;
#X obj 331 104 loadbang;
#X obj 324 152 s \$0-tempo-set;
#X msg 198 24 0;
#X obj 198 46 s \$0-LFO_wave-set;
#X obj 35 53 del 1000;
#X obj 30 21 loadbang;
#X msg 409 98 0.1;
#X obj 409 120 s \$0-LFO_freq-set;
#X msg 310 17 1;
#X obj 310 39 s \$0-syncSweeps-set;
#X obj 91 18 r \$0-reset;
#X obj 400 249 s \$0-PWM-set;
#X obj 445 222 s \$0-depth-set;
#X msg 416 186 0;
#X obj 444 83 s \$0-LFO_wshape-set;
#X obj 458 59 s \$0-LFO_wvae-set;
#X msg 444 36 0;
#X obj 375 309 s \$0-WF_vol-set;
#X obj 426 352 s \$0-PW_vol-set;
#X obj 440 332 s \$0-STR_vol-set;
#X obj 57 350 s \$0-patch_tempo-set;
#X obj 77 370 s \$0-patch_num-set;
#X obj 97 390 s \$0-patch_div-set;
#X msg 73 319 1;
#X obj 73 297 loadbang;
#X msg 372 281 100;
#X obj 103 320 del 100;
#X connect 0 0 1 0;
#X connect 2 0 3 0;
#X connect 4 0 5 0;
#X connect 6 0 7 0;
#X connect 9 0 8 0;
#X connect 11 0 10 0;
#X connect 12 0 13 0;
#X connect 12 0 14 0;
#X connect 12 0 15 0;
#X connect 12 0 16 0;
#X connect 17 0 19 0;
#X connect 18 0 17 0;
#X connect 18 0 24 0;
#X connect 20 0 21 0;
#X connect 22 0 0 0;
#X connect 22 0 2 0;
#X connect 22 0 4 0;
#X connect 22 0 6 0;
#X connect 22 0 11 0;
#X connect 22 0 9 0;
#X connect 22 0 12 0;
#X connect 22 0 20 0;
#X connect 22 0 26 0;
#X connect 23 0 22 0;
#X connect 24 0 25 0;
#X connect 26 0 27 0;
#X connect 28 0 0 0;
#X connect 28 0 2 0;
#X connect 28 0 4 0;
#X connect 28 0 6 0;
#X connect 28 0 20 0;
#X connect 28 0 9 0;
#X connect 28 0 11 0;
#X connect 28 0 12 0;
#X connect 28 0 26 0;
#X connect 28 0 31 0;
#X connect 28 0 34 0;
#X connect 28 0 43 0;
#X connect 31 0 29 0;
#X connect 31 0 30 0;
#X connect 31 0 36 0;
#X connect 31 0 37 0;
#X connect 34 0 33 0;
#X connect 34 0 32 0;
#X connect 41 0 38 0;
#X connect 41 0 39 0;
#X connect 41 0 40 0;
#X connect 42 0 41 0;
#X connect 42 0 44 0;
#X connect 43 0 35 0;
#X connect 44 0 41 0;
#X restore 819 99 pd init;
#X obj 264 67 - 0;
#N canvas 1 82 544 565 LFO 0;
#X obj 65 64 pack f 10;
#X obj 65 86 line~;
#X obj 66 148 phasor~;
#X obj 66 180 wavefolder~;
#X obj 204 219 == 0;
#X obj 81 220 == 1;
#X obj 132 220 == 2;
#X obj 62 242 *~;
#X obj 118 244 *~;
#X obj 185 244 *~;
#X obj 63 361 *~;
#X obj 121 277 r \$0-PWM;
#X obj 206 173 cos~;
#X obj 121 299 pack f 10;
#X obj 121 321 line~;
#X obj 201 299 pack f 10;
#X obj 201 321 line~;
#X obj 329 299 pack f 10;
#X obj 329 321 line~;
#X obj 201 277 r \$0-stretch_mod;
#X obj 63 383 outlet~;
#X obj 183 361 *~;
#X obj 183 383 outlet~;
#X obj 313 361 *~;
#X obj 313 383 outlet~;
#X obj 210 114 sel 0 1 2;
#X obj 277 175 s \$0-LFO_wave_name;
#X msg 210 136 set sine;
#X msg 283 136 set fold;
#X msg 360 136 set pulse;
#X obj 140 86 r \$0-LFO_wave;
#X obj 189 43 pack f 10;
#X obj 189 65 line~;
#X obj 295 43 pack f 10;
#X obj 295 65 line~;
#X msg 25 117 bipolar 1;
#X obj 27 12 loadbang;
#X obj 65 42 r \$0-LFO_freq;
#X obj 329 277 r \$0-thresh_mod;
#X obj 189 21 r \$0-LFO_wshape;
#X obj 295 21 r \$0-LFO_PW;
#X obj 414 28 r \$0-LFO_phase_sync;
#X obj 368 79 spigot;
#X obj 369 47 inlet;
#X obj 363 102 t b;
#X msg 301 100 0;
#X obj 461 275 outlet~;
#X connect 0 0 1 0;
#X connect 1 0 2 0;
#X connect 2 0 3 0;
#X connect 2 0 12 0;
#X connect 3 0 7 0;
#X connect 3 1 8 0;
#X connect 4 0 9 1;
#X connect 5 0 7 1;
#X connect 6 0 8 1;
#X connect 7 0 10 0;
#X connect 7 0 21 0;
#X connect 7 0 23 0;
#X connect 7 0 46 0;
#X connect 8 0 10 0;
#X connect 8 0 21 0;
#X connect 8 0 23 0;
#X connect 8 0 46 0;
#X connect 9 0 10 0;
#X connect 9 0 21 0;
#X connect 9 0 23 0;
#X connect 9 0 46 0;
#X connect 10 0 20 0;
#X connect 11 0 13 0;
#X connect 12 0 9 0;
#X connect 13 0 14 0;
#X connect 14 0 10 1;
#X connect 15 0 16 0;
#X connect 16 0 21 1;
#X connect 17 0 18 0;
#X connect 18 0 23 1;
#X connect 19 0 15 0;
#X connect 21 0 22 0;
#X connect 23 0 24 0;
#X connect 25 0 27 0;
#X connect 25 1 28 0;
#X connect 25 2 29 0;
#X connect 27 0 26 0;
#X connect 28 0 26 0;
#X connect 29 0 26 0;
#X connect 30 0 5 0;
#X connect 30 0 6 0;
#X connect 30 0 4 0;
#X connect 30 0 25 0;
#X connect 31 0 32 0;
#X connect 32 0 3 1;
#X connect 33 0 34 0;
#X connect 34 0 3 2;
#X connect 35 0 3 0;
#X connect 36 0 35 0;
#X connect 37 0 0 0;
#X connect 38 0 17 0;
#X connect 39 0 31 0;
#X connect 40 0 33 0;
#X connect 41 0 42 1;
#X connect 42 0 44 0;
#X connect 43 0 42 0;
#X connect 44 0 45 0;
#X connect 45 0 2 1;
#X restore 211 295 pd LFO;
#X obj 90 496 wavestretcher~;
#X obj 138 18 inlet;
#X obj 138 40 unpack;
#X obj 724 529 moonlib/mknob 32 401 0.05 500 1 0 empty \$0-LFO_freq-set
freq 4 -7 1 8 -261234 -258113 -258113 3010 1;
#X floatatom 724 566 5 0 0 0 - - #0-LFO_freq, f 5;
#X obj 383 185 f;
#X obj 701 485 bng 20 250 50 0 \$0-PWF-sync \$0-PWF-set sync -1 -7
0 10 -260909 -258113 -258113;
#X obj 381 162 r \$0-PWF-sync;
#X obj 820 420 vsl 30 67 0 99 0 0 empty \$0-WF_vol-set WF 0 -9 0 10
-207744 -45076 -45076 0 1;
#X floatatom 820 493 4 0 0 0 - - #0-WF_vol, f 4;
#X obj 853 420 vsl 30 67 0 99 0 0 empty \$0-PW_vol-set PT 0 -9 0 10
-260909 -86277 -86277 0 1;
#X floatatom 853 493 4 0 0 0 - - #0-PW_vol, f 4;
#X obj 764 529 moonlib/mknob 32 201 -1 1 0 0 empty \$0-stretch-set
stretch 0 -7 1 8 -187264 -16662 -16662 10000 1;
#X floatatom 764 566 5 0 0 0 - - #0-stretch, f 5;
#X obj 804 529 moonlib/mknob 32 201 -1 1 0 0 empty \$0-stretch_thresh-set
thresh 2 -7 1 8 -187264 -16662 -16662 10000 1;
#X floatatom 804 566 5 0 0 0 - - #0-stretch_thresh, f 5;
#X obj 844 529 moonlib/mknob 32 401 -1 1 0 0 empty \$0-stretch_mod-set
ModS 4 -7 1 8 -187264 -16662 -16662 20000 1;
#X floatatom 844 566 5 0 0 0 - - #0-stretch_mod, f 5;
#X obj 884 529 moonlib/mknob 32 401 -1 1 0 0 empty \$0-thresh_mod-set
ModT 4 -7 1 8 -187264 -16662 -16662 20000 1;
#X floatatom 884 566 5 0 0 0 - - #0-thresh_mod, f 5;
#X obj 886 420 vsl 30 67 0 99 0 0 empty \$0-STR_vol-set STR 0 -9 0
10 -187264 -16662 -16662 0 1;
#X floatatom 886 493 4 0 0 0 - - #0-STR_vol, f 4;
#X obj 120 542 r \$0-WF_vol;
#X obj 120 594 pack f 10;
#X obj 120 616 line~;
#X obj 106 645 *~;
#X obj 164 648 *~;
#X obj 242 650 *~;
#X obj 137 474 +~;
#X obj 146 423 pack f 10;
#X obj 146 445 line~;
#X obj 227 474 +~;
#X obj 236 423 pack f 10;
#X obj 236 445 line~;
#X obj 235 400 r \$0-stretch;
#X obj 210 594 pack f 10;
#X obj 210 616 line~;
#X obj 210 542 r \$0-PW_vol;
#X obj 300 594 pack f 10;
#X obj 300 616 line~;
#X obj 300 542 r \$0-STR_vol;
#X obj 169 717 outlet~;
#X obj 734 403 cnv 15 80 108 empty empty LFO 50 12 0 14 -224128 -45076
0;
#X obj 740 464 moonlib/mknob 26 201 -1 1 0 0 empty \$0-LFO_wshape-set
wshape -4 -7 1 8 -261234 -258113 -258113 0 1;
#X floatatom 740 493 4 0 0 0 - - #0-LFO_wshape, f 4;
#X obj 736 423 hradio 12 1 0 3 \$0-LFO_wave \$0-LFO_wave-set wave 0
-8 0 10 -261234 -258113 -258113 0;
#X symbolatom 775 423 5 0 0 0 - #0-LFO_wave_name -, f 5;
#X obj 780 464 moonlib/mknob 26 201 -1 1 0 0 empty \$0-LFO_PW-set PT
4 -7 1 8 -261234 -258113 -258113 0 1;
#X floatatom 780 493 4 0 0 0 - - #0-LFO_PW, f 4;
#X obj 663 412 tgl 18 0 \$0-on \$0-on-set ON 21 9 0 10 -1 -258113 -86277
1 1;
#X obj 937 316 r \$0-on;
#X obj 937 338 switch~;
#X obj 120 564 dbtorms;
#X obj 210 564 dbtorms;
#X obj 300 564 dbtorms;
#X msg 40 306 bipolar 1;
#X obj 41 270 loadbang;
#X obj 267 276 osc~;
#X obj 316 275 f;
#X obj 284 198 *;
#X obj 373 89 t b b f;
#X obj 59 399 r \$0-stretch_thresh;
#X obj 572 439 nbx 5 14 -1e+37 1e+37 0 0 \$0-detune_pc \$0-detune_pc-set
detune 0 -8 0 10 -262144 -1 -1 0 256;
#X obj 96 67 +;
#X obj 42 40 r \$0-detune;
#X obj 42 62 t b f;
#X obj 248 101 t b;
#X floatatom 456 326 5 0 0 0 - - -, f 5;
#X obj 736 438 tgl 12 0 \$0-LFO_phase_sync \$0-LFO_phase_sync-set sync_phase
14 6 0 10 -261234 -258113 -258113 0 1;
#X obj 337 216 s \$0-LFO_freq-set;
#X obj 332 358 outlet~;
#X obj 702 656 loadbang;
#X msg 702 681 1;
#X obj 703 708 s \$0-direction-set;
#N canvas 8 71 1272 637 patches 0;
#X obj 294 109 r \$0-shape;
#X obj 273 643 s \$0-shape-set;
#X obj 286 624 s \$0-wphase-set;
#X obj 308 129 r \$0-wphase;
#X obj 321 149 r \$0-mphase;
#X obj 300 604 s \$0-mphase-set;
#X obj 314 584 s \$0-CMR_coarse-set;
#X obj 334 169 r \$0-CMR_coarse;
#X obj 348 189 r \$0-CMR_fine;
#X obj 328 564 s \$0-CMR_fine-set;
#X obj 342 544 s \$0-depth-set;
#X obj 361 209 r \$0-depth;
#X obj 374 229 r \$0-PWL;
#X obj 355 524 s \$0-PWL-set;
#X obj 388 249 r \$0-PWM;
#X obj 369 504 s \$0-PWM-set;
#X obj 383 484 s \$0-LFO_freq-set;
#X obj 401 269 r \$0-LFO_freq;
#X obj 397 643 s \$0-LFO_wshape-set;
#X obj 414 107 r \$0-LFO_wshape;
#X obj 428 127 r \$0-LFO_PW;
#X obj 411 623 s \$0-LFO_PW-set;
#X obj 424 603 s \$0-LFO_wave-set;
#X obj 441 147 r \$0-LFO_wave;
#X obj 454 167 r \$0-LFO_phase_sync;
#X obj 438 583 s \$0-LFO_phase_sync-set;
#X obj 452 563 s \$0-stretch-set;
#X obj 468 187 r \$0-stretch;
#X obj 481 207 r \$0-stretch_thresh;
#X obj 466 543 s \$0-stretch_thresh-set;
#X obj 480 523 s \$0-stretch_mod-set;
#X obj 494 227 r \$0-stretch_mod;
#X obj 493 503 s \$0-thresh_mod-set;
#X obj 508 247 r \$0-thresh_mod;
#X obj 507 483 s \$0-WF_vol-set;
#X obj 521 267 r \$0-WF_vol;
#X obj 521 643 s \$0-PW_vol-set;
#X obj 534 107 r \$0-PW_vol;
#X obj 535 623 s \$0-STR_vol-set;
#X obj 548 127 r \$0-STR_vol;
#X obj 549 603 s \$0-tempo-set;
#X obj 561 147 r \$0-tempo-num;
#X obj 562 563 s \$0-num-set;
#X obj 574 167 r \$0-num-val;
#X obj 576 463 s \$0-div-set;
#X obj 588 187 r \$0-div-set;
#X obj 658 518 s \$0-detune_pc-set;
#X obj 601 207 r \$0-detune_pc;
#X obj 604 583 s \$0-direction-set;
#X obj 614 227 r \$0-direction;
#X obj 618 543 s \$0-syncSweeps-set;
#X obj 628 247 r \$0-syncSweeps;
#X obj 295 294 pack f f f f f f f f f f f f f f f f f f f f f f f f
f f, f 58;
#N canvas 316 281 922 487 presets 0;
#X obj 26 211 t b a;
#X msg 310 253 add patches 0;
#X obj 307 215 loadbang;
#X obj 201 416 route patches;
#X msg 244 202 goto 0;
#X msg 156 331 replace patches \$1;
#X msg 207 252 this;
#X obj 25 241 t b b b;
#X msg 474 395 range 1 \$1;
#X obj 484 181 t b f;
#X msg 499 205 goto \$1;
#X msg 464 204 this;
#X obj 250 68 r \$0-patches_load;
#X obj 250 95 openpanel;
#X msg 324 141 read \$1;
#X msg 280 141 goto 0;
#X msg 250 141 this;
#X obj 534 249 r \$0-patches_save;
#X obj 534 275 savepanel;
#X msg 533 340 write \$1;
#X msg 364 186 print;
#X obj 202 386 route list;
#X obj 250 122 t b b a b;
#X msg 378 287 clear;
#X obj 417 161 t b b;
#X obj 603 120 inlet;
#X obj 559 459 outlet;
#X obj 554 83 symbol;
#X obj 705 428 inlet;
#X obj 706 453 random;
#X obj 705 475 outlet;
#X obj 474 412 s \$0-patch-set;
#X obj 802 297 r \$0-store_plus;
#X obj 686 297 r \$0-store_minus;
#X obj 802 321 f;
#X obj 686 331 f;
#X obj 686 351 +;
#X obj 731 348 %;
#X obj 731 368 + 1;
#X obj 664 266 - 1;
#X obj 686 372 - 1;
#X obj 802 342 + 1;
#X obj 725 389 s \$0-patch-set;
#X obj 558 129 inlet;
#X obj 208 282 msgfile;
#X obj 534 297 makesymbol %s.dlf;
#X obj 18 40 inlet;
#X obj 288 448 outlet;
#X obj 419 135 r \$0-patches_clear;
#X obj 24 86 spigot 1;
#X obj 144 133 spigot;
#X obj 231 28 inlet;
#X obj 84 85 == 0;
#X obj 410 249 r \$0-patches_resave;
#X msg 451 319 write /media/files/puredata/2016/WF_DEMOS/patches.dlf
;
#X msg 451 297 set write \$1;
#X obj 296 360 spigot;
#X msg 340 359 0;
#X msg 341 342 1;
#X obj 296 377 s \$0-patches-num;
#X obj 156 278 f;
#X obj 172 261 + 1;
#X obj 22 109 list prepend add;
#X obj 22 130 list trim;
#X obj 145 164 list prepend replace;
#X obj 145 185 list trim;
#X connect 0 0 7 0;
#X connect 0 1 44 0;
#X connect 1 0 44 0;
#X connect 2 0 1 0;
#X connect 3 0 29 1;
#X connect 3 0 37 1;
#X connect 3 0 36 1;
#X connect 3 0 56 0;
#X connect 3 0 61 0;
#X connect 3 1 47 0;
#X connect 4 0 44 0;
#X connect 5 0 44 0;
#X connect 6 0 44 0;
#X connect 7 0 60 0;
#X connect 7 1 6 0;
#X connect 7 2 4 0;
#X connect 7 2 58 0;
#X connect 8 0 31 0;
#X connect 9 0 11 0;
#X connect 9 1 10 0;
#X connect 9 1 39 0;
#X connect 10 0 44 0;
#X connect 11 0 44 0;
#X connect 12 0 13 0;
#X connect 13 0 22 0;
#X connect 13 0 26 0;
#X connect 14 0 44 0;
#X connect 15 0 44 0;
#X connect 16 0 44 0;
#X connect 17 0 18 0;
#X connect 18 0 45 0;
#X connect 19 0 44 0;
#X connect 20 0 44 0;
#X connect 21 0 3 0;
#X connect 22 0 16 0;
#X connect 22 1 15 0;
#X connect 22 1 58 0;
#X connect 22 2 14 0;
#X connect 22 2 55 0;
#X connect 22 3 23 0;
#X connect 23 0 44 0;
#X connect 24 0 1 0;
#X connect 24 1 23 0;
#X connect 25 0 27 0;
#X connect 27 0 22 0;
#X connect 28 0 29 0;
#X connect 29 0 30 0;
#X connect 32 0 34 0;
#X connect 33 0 35 0;
#X connect 34 0 41 0;
#X connect 35 0 36 0;
#X connect 36 0 40 0;
#X connect 37 0 38 0;
#X connect 38 0 42 0;
#X connect 39 0 35 1;
#X connect 39 0 34 1;
#X connect 40 0 37 0;
#X connect 41 0 37 0;
#X connect 43 0 9 0;
#X connect 44 0 21 0;
#X connect 45 0 19 0;
#X connect 45 0 26 0;
#X connect 45 0 55 0;
#X connect 46 0 49 0;
#X connect 46 0 50 0;
#X connect 48 0 24 0;
#X connect 49 0 62 0;
#X connect 50 0 64 0;
#X connect 51 0 52 0;
#X connect 51 0 50 1;
#X connect 52 0 49 1;
#X connect 53 0 54 0;
#X connect 54 0 44 0;
#X connect 55 0 54 0;
#X connect 56 0 57 0;
#X connect 56 0 59 0;
#X connect 56 0 8 0;
#X connect 57 0 56 1;
#X connect 58 0 56 1;
#X connect 60 0 5 0;
#X connect 60 0 29 1;
#X connect 60 0 36 1;
#X connect 60 0 37 1;
#X connect 60 0 59 0;
#X connect 60 0 8 0;
#X connect 61 0 60 1;
#X connect 62 0 63 0;
#X connect 63 0 0 0;
#X connect 64 0 65 0;
#X connect 65 0 44 0;
#X restore 286 346 pd presets;
#X obj 274 375 unpack f f f f f f f f f f f f f f f f f f f f f f f
f f f;
#X msg 362 345 patch \$1;
#X obj 315 315 r \$0-patch-num;
#X obj 616 347 route patch file randpat;
#X obj 612 313 inlet;
#X obj 616 369 s \$0-patch-set;
#X obj 729 411 route shape wphase mphase CMRc CMRf depth PWL PWM LFOfreq
LFOshape LFOPW LFOwave LFOsync stretch;
#X obj 279 258 f;
#X obj 223 202 r \$0-store_patch;
#X obj 223 223 t b b;
#X obj 151 155 r \$0-replace_patch;
#X obj 151 176 t b b;
#X msg 178 197 1;
#X msg 265 231 0;
#X obj 728 451 route sthresh stmod thmod WF PW STR tempo num div detunepc
dir sync on;
#X obj 1038 490 s \$0-on-set;
#X obj 808 329 s \$0-patch_tempo-set;
#X obj 828 349 s \$0-patch_num-set;
#X obj 848 369 s \$0-patch_div-set;
#X obj 810 285 route patchTempo patchNum patchDiv;
#N canvas 433 184 666 299 patchable 0;
#X obj 76 156 spigot 1;
#X obj 71 35 inlet;
#X obj 160 49 r \$0-patch_tempo;
#X obj 164 76 == 0;
#X obj 76 259 outlet;
#X obj 132 156 spigot;
#X obj 131 178 t b;
#X obj 131 200 del 0;
#X obj 276 156 spigot 1;
#X obj 271 35 inlet;
#X obj 364 76 == 0;
#X obj 276 259 outlet;
#X obj 332 156 spigot;
#X obj 331 178 t b;
#X obj 331 200 del 0;
#X obj 360 49 r \$0-patch_num;
#X obj 456 156 spigot 1;
#X obj 451 35 inlet;
#X obj 544 76 == 0;
#X obj 456 259 outlet;
#X obj 512 156 spigot;
#X obj 511 178 t b;
#X obj 511 200 del 0;
#X obj 540 48 r \$0-patch_div;
#X obj 183 99 r \$0-patch-num;
#X connect 0 0 4 0;
#X connect 1 0 0 0;
#X connect 1 0 5 0;
#X connect 2 0 3 0;
#X connect 2 0 0 1;
#X connect 3 0 5 1;
#X connect 5 0 6 0;
#X connect 6 0 7 0;
#X connect 7 0 4 0;
#X connect 8 0 11 0;
#X connect 9 0 8 0;
#X connect 9 0 12 0;
#X connect 10 0 12 1;
#X connect 12 0 13 0;
#X connect 13 0 14 0;
#X connect 14 0 11 0;
#X connect 15 0 10 0;
#X connect 15 0 8 1;
#X connect 16 0 19 0;
#X connect 17 0 16 0;
#X connect 17 0 20 0;
#X connect 18 0 20 1;
#X connect 20 0 21 0;
#X connect 21 0 22 0;
#X connect 22 0 19 0;
#X connect 23 0 18 0;
#X connect 23 0 16 1;
#X connect 24 0 5 0;
#X connect 24 0 12 0;
#X connect 24 0 20 0;
#X restore 552 405 pd patchable;
#X connect 0 0 61 1;
#X connect 3 0 52 1;
#X connect 4 0 52 2;
#X connect 7 0 52 3;
#X connect 8 0 52 4;
#X connect 11 0 52 5;
#X connect 12 0 52 6;
#X connect 14 0 52 7;
#X connect 17 0 52 8;
#X connect 19 0 52 9;
#X connect 20 0 52 10;
#X connect 23 0 52 11;
#X connect 24 0 52 12;
#X connect 27 0 52 13;
#X connect 28 0 52 14;
#X connect 31 0 52 15;
#X connect 33 0 52 16;
#X connect 35 0 52 17;
#X connect 37 0 52 18;
#X connect 39 0 52 19;
#X connect 41 0 52 20;
#X connect 43 0 52 21;
#X connect 45 0 52 22;
#X connect 47 0 52 23;
#X connect 49 0 52 24;
#X connect 51 0 52 25;
#X connect 52 0 53 0;
#X connect 53 0 54 0;
#X connect 53 2 55 0;
#X connect 54 0 1 0;
#X connect 54 1 2 0;
#X connect 54 2 5 0;
#X connect 54 3 6 0;
#X connect 54 4 9 0;
#X connect 54 5 10 0;
#X connect 54 6 13 0;
#X connect 54 7 15 0;
#X connect 54 8 16 0;
#X connect 54 9 18 0;
#X connect 54 10 21 0;
#X connect 54 11 22 0;
#X connect 54 12 25 0;
#X connect 54 13 26 0;
#X connect 54 14 29 0;
#X connect 54 15 30 0;
#X connect 54 16 32 0;
#X connect 54 17 34 0;
#X connect 54 18 36 0;
#X connect 54 19 38 0;
#X connect 54 20 74 0;
#X connect 54 21 74 1;
#X connect 54 22 74 2;
#X connect 54 23 46 0;
#X connect 54 24 48 0;
#X connect 54 25 50 0;
#X connect 55 0 57 0;
#X connect 56 0 53 2;
#X connect 57 0 59 0;
#X connect 57 1 53 3;
#X connect 57 2 53 4;
#X connect 57 3 60 0;
#X connect 57 3 73 0;
#X connect 58 0 57 0;
#X connect 60 0 1 0;
#X connect 60 1 2 0;
#X connect 60 2 5 0;
#X connect 60 3 6 0;
#X connect 60 4 9 0;
#X connect 60 5 10 0;
#X connect 60 6 13 0;
#X connect 60 7 15 0;
#X connect 60 8 16 0;
#X connect 60 9 18 0;
#X connect 60 10 21 0;
#X connect 60 11 22 0;
#X connect 60 12 25 0;
#X connect 60 13 26 0;
#X connect 60 14 68 0;
#X connect 61 0 52 0;
#X connect 62 0 63 0;
#X connect 63 0 61 0;
#X connect 63 1 67 0;
#X connect 64 0 65 0;
#X connect 65 0 61 0;
#X connect 65 1 66 0;
#X connect 66 0 53 1;
#X connect 67 0 53 1;
#X connect 68 0 29 0;
#X connect 68 1 30 0;
#X connect 68 2 32 0;
#X connect 68 3 34 0;
#X connect 68 4 36 0;
#X connect 68 5 38 0;
#X connect 68 6 40 0;
#X connect 68 7 42 0;
#X connect 68 8 44 0;
#X connect 68 9 46 0;
#X connect 68 10 48 0;
#X connect 68 11 50 0;
#X connect 68 12 69 0;
#X connect 73 0 70 0;
#X connect 73 1 71 0;
#X connect 73 2 72 0;
#X connect 74 0 40 0;
#X connect 74 1 42 0;
#X connect 74 2 44 0;
#X restore 908 75 pd patches;
#X obj 925 403 cnv 15 45 184 empty empty empty 20 12 0 14 -183672 -66577
0;
#X obj 928 413 nbx 3 15 0 999 0 0 empty empty empty -2 -6 0 10 -257472
-1109 -90133 0 256;
#X obj 928 442 nbx 3 15 1 45 0 0 \$0-patch-num \$0-patch-set select
0 -5 0 10 -17235 -261234 -17235 1 256;
#X obj 935 485 bng 15 250 50 0 \$0-store_patch \$0-store_patch-bng
store -3 -5 0 7 -17235 -262130 -17235;
#X obj 939 529 bng 16 250 50 0 \$0-patches_load \$0-patches_load-bng
load -3 -5 0 10 -2498 -262144 -13381;
#X obj 939 550 bng 16 250 50 0 \$0-patches_save \$0-patches_save-bng
save -2 22 0 10 -159809 -262144 -86277;
#X obj 928 413 nbx 3 15 0 999 0 0 \$0-patches-dummy \$0-patches-num
patches 0 -5 0 10 -17235 -203904 -17235 0 256;
#X obj 945 503 bng 8 250 50 0 \$0-replace_patch \$0-replace_patch-bng
ovw -15 4 0 7 -17235 -262130 -17235;
#X obj 952 462 bng 12 250 50 0 \$0-store_plus \$0-store_plus-bng +
-7 4 0 10 -17235 -198336 -17235;
#X obj 928 462 bng 12 250 50 0 \$0-store_minus \$0-store_minus-bng
- 8 3 0 17 -17235 -257985 -17235;
#X obj 907 31 inlet;
#X obj 75 160 pack f 0.5;
#X obj 75 181 line~;
#X msg 271 224 \$1 0.5;
#X obj 246 248 line~;
#X obj 928 556 bng 8 250 50 0 \$0-patches_resave \$0-patches_resave-bng
re -2 15 0 8 -159809 -262144 -86277;
#X obj 463 46 tcalc;
#X obj 534 568 bng 15 250 50 0 \$0-integerize \$0-integerize-bng i
-9 7 0 10 -262144 -1 -1;
#X obj 614 294 r \$0-integerize;
#X obj 528 311 r \$0-CMR;
#X obj 514 335 i;
#X obj 514 357 s \$0-CMR_coarse-set;
#X obj 614 316 t b b;
#X msg 614 338 0;
#X obj 614 360 s \$0-CMR_fine-set;
#X obj 426 361 nbx 5 14 -1 1 0 0 \$0-detune \$0-detune-set detune 0
-8 0 10 -262144 -1 -1 0 256;
#X obj 308 423 outlet;
#N canvas 433 184 450 300 auto_out 0;
#X obj 66 65 r \$0-LFO_freq;
#X msg 66 87 LFOfreq \$1;
#X obj 159 208 outlet;
#X obj 168 65 r \$0-duration;
#X msg 168 87 duration \$1;
#X connect 0 0 1 0;
#X connect 1 0 2 0;
#X connect 3 0 4 0;
#X connect 4 0 2 0;
#X restore 318 401 pd auto_out;
#X obj 185 40 s \$0-noteIn;
#X obj 709 417 bng 11 250 50 0 \$0-reset \$0-reset-bng reset -7 -6
0 8 -1 -258113 -1;
#X obj 644 459 tgl 15 0 \$0-patch_tempo \$0-patch_tempo-set patch -4
-6 0 8 -232560 -87053 -87053 1 1;
#X obj 754 379 tgl 15 0 \$0-patch_tempo \$0-patch_tempo-set patch -4
-6 0 8 -232560 -1 -1 1 1;
#X obj 664 481 tgl 12 0 \$0-patch_num \$0-patch_num-set empty -4 -6
0 8 -204336 -66893 -66893 1 1;
#X obj 664 496 tgl 12 0 \$0-patch_div \$0-patch_div-set empty -4 -6
0 8 -195704 -50199 -50199 1 1;
#X connect 8 0 94 0;
#X connect 8 0 119 0;
#X connect 8 1 120 0;
#X connect 9 0 10 0;
#X connect 10 0 39 0;
#X connect 11 0 10 1;
#X connect 12 0 11 0;
#X connect 13 0 8 1;
#X connect 14 0 13 0;
#X connect 17 0 9 1;
#X connect 19 0 20 1;
#X connect 20 0 30 0;
#X connect 21 0 92 0;
#X connect 21 0 180 0;
#X connect 22 0 31 0;
#X connect 23 0 24 0;
#X connect 24 0 25 0;
#X connect 24 1 26 1;
#X connect 24 1 65 0;
#X connect 25 0 26 0;
#X connect 26 0 27 0;
#X connect 27 0 83 0;
#X connect 27 0 99 1;
#X connect 28 0 33 0;
#X connect 29 0 35 0;
#X connect 30 0 21 0;
#X connect 30 1 17 0;
#X connect 30 2 36 0;
#X connect 31 0 28 0;
#X connect 32 0 22 0;
#X connect 32 1 56 0;
#X connect 33 0 34 0;
#X connect 34 0 153 0;
#X connect 35 0 22 0;
#X connect 35 1 22 1;
#X connect 36 0 33 1;
#X connect 36 0 153 1;
#X connect 37 0 38 0;
#X connect 38 0 13 1;
#X connect 39 0 8 0;
#X connect 42 0 59 0;
#X connect 43 0 59 1;
#X connect 45 0 59 2;
#X connect 46 1 17 0;
#X connect 46 1 160 0;
#X connect 46 1 93 0;
#X connect 47 0 48 0;
#X connect 48 0 49 0;
#X connect 49 0 8 2;
#X connect 51 0 52 0;
#X connect 53 0 54 0;
#X connect 56 0 28 1;
#X connect 57 0 58 0;
#X connect 57 1 56 1;
#X connect 58 0 56 1;
#X connect 59 0 40 0;
#X connect 59 1 41 0;
#X connect 60 0 61 0;
#X connect 62 0 63 0;
#X connect 66 0 67 0;
#X connect 68 0 14 1;
#X connect 69 0 68 0;
#X connect 70 0 71 0;
#X connect 72 0 29 0;
#X connect 73 0 154 0;
#X connect 74 0 152 1;
#X connect 75 0 69 0;
#X connect 76 0 47 0;
#X connect 77 0 37 0;
#X connect 78 0 12 0;
#X connect 79 0 185 0;
#X connect 83 0 85 0;
#X connect 84 0 88 0;
#X connect 85 0 32 0;
#X connect 86 0 85 1;
#X connect 86 0 32 0;
#X connect 87 0 83 0;
#X connect 87 1 85 1;
#X connect 88 0 86 0;
#X connect 88 1 87 0;
#X connect 92 0 22 0;
#X connect 93 0 49 1;
#X connect 93 1 122 0;
#X connect 93 2 125 0;
#X connect 93 3 164 0;
#X connect 94 0 121 0;
#X connect 95 0 96 0;
#X connect 95 0 197 0;
#X connect 96 0 157 0;
#X connect 96 1 19 0;
#X connect 96 1 46 0;
#X connect 97 0 98 0;
#X connect 99 0 163 0;
#X connect 101 0 99 0;
#X connect 102 0 103 0;
#X connect 104 0 105 0;
#X connect 106 0 107 0;
#X connect 108 0 109 0;
#X connect 110 0 111 0;
#X connect 112 0 113 0;
#X connect 114 0 115 0;
#X connect 116 0 146 0;
#X connect 117 0 118 0;
#X connect 118 0 119 1;
#X connect 119 0 135 0;
#X connect 120 0 135 0;
#X connect 121 0 135 0;
#X connect 122 0 94 1;
#X connect 123 0 124 0;
#X connect 124 0 122 1;
#X connect 125 0 94 2;
#X connect 126 0 127 0;
#X connect 127 0 125 1;
#X connect 128 0 126 0;
#X connect 129 0 130 0;
#X connect 130 0 120 1;
#X connect 131 0 147 0;
#X connect 132 0 133 0;
#X connect 133 0 121 1;
#X connect 134 0 148 0;
#X connect 137 0 138 0;
#X connect 141 0 142 0;
#X connect 144 0 145 0;
#X connect 146 0 117 0;
#X connect 147 0 129 0;
#X connect 148 0 132 0;
#X connect 149 0 8 0;
#X connect 150 0 149 0;
#X connect 151 0 14 0;
#X connect 152 0 151 1;
#X connect 152 0 161 0;
#X connect 153 0 182 0;
#X connect 154 0 31 0;
#X connect 154 1 56 0;
#X connect 154 2 57 0;
#X connect 155 0 123 0;
#X connect 157 0 20 0;
#X connect 158 0 159 0;
#X connect 159 0 157 0;
#X connect 159 1 157 1;
#X connect 160 0 152 0;
#X connect 165 0 166 0;
#X connect 166 0 167 0;
#X connect 179 0 168 0;
#X connect 180 0 181 0;
#X connect 181 0 9 0;
#X connect 182 0 183 0;
#X connect 183 0 151 0;
#X connect 185 0 23 0;
#X connect 187 0 191 0;
#X connect 188 0 189 1;
#X connect 189 0 190 0;
#X connect 191 0 192 0;
#X connect 191 1 189 0;
#X connect 192 0 193 0;
#X connect 196 0 195 0;
#X coords 0 -1 1 1 571 191 1 400 400;
