#N canvas 153 271 507 350 10;
#N canvas 49 18 450 300 divshow 0;
#X obj -50 103 sel 1 2 3 4 5 6 7 8 9 10 11 12 13 14 15 16;
#X msg -50 186 1;
#X msg -33 169 2;
#X msg -16 152 4;
#X msg 1 135 8;
#X msg 189 185 4.5;
#X msg 206 168 9;
#X msg 18 185 1.5;
#X msg 35 168 3;
#X msg 52 151 6;
#X msg 65 134 12;
#X msg 86 185 2.5;
#X msg 103 168 5;
#X msg 120 151 10;
#X msg 137 185 3.5;
#X msg 155 168 7;
#X msg 172 151 14;
#X obj -50 39 inlet;
#X obj -50 225 outlet;
#X obj 272 134 outlet;
#X connect 0 0 1 0;
#X connect 0 1 2 0;
#X connect 0 2 3 0;
#X connect 0 3 4 0;
#X connect 0 4 7 0;
#X connect 0 5 8 0;
#X connect 0 6 9 0;
#X connect 0 7 10 0;
#X connect 0 8 11 0;
#X connect 0 9 12 0;
#X connect 0 10 13 0;
#X connect 0 11 14 0;
#X connect 0 12 15 0;
#X connect 0 13 16 0;
#X connect 0 14 5 0;
#X connect 0 15 6 0;
#X connect 0 16 19 0;
#X connect 1 0 18 0;
#X connect 2 0 18 0;
#X connect 3 0 18 0;
#X connect 4 0 18 0;
#X connect 5 0 18 0;
#X connect 6 0 18 0;
#X connect 7 0 18 0;
#X connect 8 0 18 0;
#X connect 9 0 18 0;
#X connect 10 0 18 0;
#X connect 11 0 18 0;
#X connect 12 0 18 0;
#X connect 13 0 18 0;
#X connect 14 0 18 0;
#X connect 15 0 18 0;
#X connect 16 0 18 0;
#X connect 17 0 0 0;
#X restore 120 160 pd divshow;
#X obj 248 117 nbx 3 10 1 99 0 0 empty empty empty 0 -6 0 8 -199801
-50198 -50198 1 256 0;
#X obj 248 107 nbx 3 10 1 99 0 0 empty empty empty 0 -6 0 8 -204337
-66893 -66893 4 256 0;
#X obj 120 119 hradio 8 1 0 16 empty empty div -18 4 0 8 -195704 -50199
-50199 0;
#X obj 120 109 hradio 8 1 0 16 empty empty num -18 4 0 8 -204336 -66893
-66893 3;
#X obj 215 136 + 1;
#X obj 118 139 + 1;
#X obj 157 224 t b f;
#X obj 86 264 * 1;
#X obj 280 117 nbx 4 10 0 1e+07 0 0 empty empty dur 0 -6 0 8 -200249
-13330 -13330 1818.18 256 0;
#X obj 83 297 outlet;
#X msg 214 52 0;
#X msg 252 53 2;
#X obj 218 27 loadbang;
#X obj 44 5 inlet;
#X obj 21 190 expr 60000/$f1;
#X msg 319 223 dur \$1;
#X msg 379 221 tempo \$1;
#X obj 347 85 expr 60000/$f1;
#X obj 352 260 outlet;
#X obj 142 93 hsl 148 10 10 304 0 0 \$0-tempo \$0-tempo-set tempo 60
5 0 10 -232560 -87053 -87053 6100 1;
#X text 335 20 tcalc;
#X obj 295 93 nbx 4 10 0.01 1000 1 0 \$0-tempo-num \$0-tempo empty
0 -6 0 8 -232560 -87053 -86853 132 256 0;
#X obj 18 70 t f f;
#X obj 7 115 s \$0-tempo-set;
#X obj 12 93 s \$0-tempo;
#X obj 19 167 r \$0-tempo-num;
#X obj 347 142 t f f;
#X obj 352 187 s \$0-tempo-set;
#X obj 341 165 s \$0-tempo;
#X obj 80 69 t f f;
#N canvas 0 0 450 300 int 0;
#X obj 108 61 inlet;
#X obj 103 108 spigot 1;
#X obj 195 108 spigot;
#X obj 287 42 inlet;
#X obj 149 82 == 0;
#X obj 197 137 i;
#X obj 135 186 outlet;
#X connect 0 0 1 0;
#X connect 0 0 2 0;
#X connect 1 0 6 0;
#X connect 2 0 5 0;
#X connect 3 0 4 0;
#X connect 3 0 2 1;
#X connect 4 0 1 1;
#X connect 5 0 6 0;
#X restore 347 116 pd int;
#X obj 321 103 tgl 10 0 \$0-tempo_int \$0-tempo_int-set int -3 16 0
8 -232560 -87053 -87053 0 1;
#X obj 393 114 r \$0-tempo_int;
#X msg 417 164 160;
#X obj 414 140 loadbang;
#X obj 143 52 - 1;
#X obj 45 25 route tempo dur div num;
#X msg 238 258 num \$1;
#X msg 284 259 div \$1;
#X obj 13 48 route bang;
#X obj 122 185 t b f;
#X obj 31 222 / 4;
#X obj 156 285 expr 1000/$f1;
#X msg 154 307 freq \$1;
#X connect 0 0 1 0;
#X connect 0 0 41 0;
#X connect 3 0 6 0;
#X connect 3 0 39 0;
#X connect 4 0 5 0;
#X connect 4 0 38 0;
#X connect 5 0 2 0;
#X connect 5 0 7 0;
#X connect 6 0 0 0;
#X connect 7 0 8 0;
#X connect 7 1 8 1;
#X connect 8 0 9 0;
#X connect 8 0 10 0;
#X connect 8 0 43 0;
#X connect 11 0 4 0;
#X connect 12 0 3 0;
#X connect 13 0 11 0;
#X connect 13 0 12 0;
#X connect 14 0 37 0;
#X connect 15 0 16 0;
#X connect 15 0 42 0;
#X connect 16 0 19 0;
#X connect 17 0 19 0;
#X connect 18 0 31 0;
#X connect 23 0 25 0;
#X connect 23 1 24 0;
#X connect 26 0 15 0;
#X connect 26 0 17 0;
#X connect 27 0 29 0;
#X connect 27 1 28 0;
#X connect 30 0 8 0;
#X connect 30 1 18 0;
#X connect 31 0 27 0;
#X connect 33 0 31 1;
#X connect 34 0 28 0;
#X connect 35 0 34 0;
#X connect 36 0 4 0;
#X connect 37 0 40 0;
#X connect 37 1 30 0;
#X connect 37 2 3 0;
#X connect 37 3 36 0;
#X connect 38 0 19 0;
#X connect 39 0 19 0;
#X connect 40 0 24 0;
#X connect 40 1 23 0;
#X connect 41 0 42 0;
#X connect 41 1 42 1;
#X connect 42 0 8 0;
#X connect 43 0 44 0;
#X connect 44 0 19 0;
#X coords 0 -1 1 1 235 40 1 100 90;
