#N canvas 542 89 735 620 10;
#X declare -lib zexy;
#X declare -lib moonlib;
#X obj 454 32 declare -lib zexy;
#X obj 454 59 declare -lib moonlib;
#X obj 11 43 cnv 15 141 71 empty empty empty 2 4 0 9 -171123 -45076
0;
#X obj 28 154 inlet~;
#N canvas 152 45 1055 596 patches 0;
#X obj 22 56 f;
#X obj 19 232 t b a;
#X obj 89 321 msgfile;
#X obj 356 382 spigot;
#X msg 400 381 0;
#X msg 401 364 1;
#X msg 172 289 add patches 0;
#X obj 169 251 loadbang;
#X obj 80 551 route patches;
#X msg 106 238 goto 0;
#X obj 34 297 + 1;
#X obj 18 314 f;
#X msg 18 367 replace patches \$1;
#X msg 69 288 this;
#X obj 18 262 t b b b;
#X msg 573 327 range 1 \$1;
#X obj 346 217 t b f;
#X msg 361 241 goto \$1;
#X msg 326 240 this;
#X obj 453 229 r \$0-patches_load;
#X obj 453 256 openpanel;
#X msg 527 302 read \$1;
#X msg 483 302 goto 0;
#X msg 453 302 this;
#X obj 633 181 r \$0-patches_save;
#X obj 633 209 savepanel;
#X msg 630 282 write \$1;
#X msg 226 222 print;
#X obj 81 521 route list;
#X obj 453 283 t b b a b;
#X msg 469 362 clear;
#X obj 281 171 r \$0-patches_clear;
#X obj 279 197 t b b;
#X obj 846 125 inlet;
#X obj 849 373 outlet;
#X obj 813 170 symbol;
#X obj 910 161 inlet;
#X obj 963 418 random;
#X obj 981 510 outlet;
#X obj 356 399 s \$0-patches-num;
#X obj 573 344 s \$0-patch-set;
#X obj 901 229 r \$0-store_plus;
#X obj 785 229 r \$0-store_minus;
#X obj 901 253 f;
#X obj 785 263 f;
#X obj 785 283 +;
#X obj 830 280 %;
#X obj 830 300 + 1;
#X obj 763 198 - 1;
#X obj 785 304 - 1;
#X obj 901 274 + 1;
#X obj 824 321 s \$0-patch-set;
#X obj 885 129 inlet;
#X obj 632 238 makesymbol %s.dlf;
#X obj 22 13 r \$0-store_patch;
#X obj 37 33 r \$0-freq;
#X obj 40 81 r \$0-pitch;
#X obj 54 117 r \$0-fc_eg_depth-num;
#X obj 70 143 r \$0-res;
#X obj 102 36 r \$0-amp_a-num;
#X obj 113 55 r \$0-amp_d-num;
#X obj 122 74 r \$0-amp_s-num;
#X obj 135 93 r \$0-amp_r-num;
#X obj 208 34 r \$0-fc_a-num;
#X obj 218 54 r \$0-fc_d-num;
#X obj 228 74 r \$0-fc_s-num;
#X obj 237 94 r \$0-fc_r-num;
#X obj 446 444 s \$0-porta-set;
#X obj 344 621 t f f;
#X obj 371 641 s \$0-fc_a-set;
#X obj 344 660 s \$0-fc_a;
#X obj 426 463 s \$0-type-set;
#X obj 364 562 t f f;
#X obj 364 601 s \$0-fc_d;
#X obj 391 582 s \$0-fc_d-set;
#X obj 385 542 s \$0-fc_s-set;
#X obj 405 484 t f f;
#X obj 405 523 s \$0-fc_r;
#X obj 432 504 s \$0-fc_r-set;
#X obj 244 621 t f f;
#X obj 264 562 t f f;
#X obj 244 660 s \$0-amp_a;
#X obj 271 641 s \$0-amp_a-set;
#X obj 264 601 s \$0-amp_d;
#X obj 291 582 s \$0-amp_d-set;
#X obj 285 542 s \$0-amp_s-set;
#X obj 305 523 s \$0-amp_r;
#X obj 332 504 s \$0-amp_r-set;
#X obj 305 484 t f f;
#X obj 181 487 s \$0-freq-set;
#X obj 201 467 s \$0-pitch-set;
#X obj 221 447 s \$0-fc_eg_depth-set;
#X obj 242 407 * 100;
#X obj 242 427 s \$0-res_pc-set;
#X obj 210 403 sqrt;
#X obj 253 117 r \$0-type;
#X obj 285 140 r \$0-porta;
#X obj 27 167 pack f f f f f f f f f f f f f f f;
#X obj 353 116 r \$0-precision;
#X obj 167 336 unpack f f f f f f f f f f f f f f f;
#X obj 470 424 s \$0-precision-set;
#X obj 26 186 list prepend add;
#X obj 26 207 list trim;
#X connect 0 0 97 0;
#X connect 1 0 14 0;
#X connect 1 1 2 0;
#X connect 2 0 28 0;
#X connect 3 0 4 0;
#X connect 3 0 15 0;
#X connect 3 0 39 0;
#X connect 4 0 3 1;
#X connect 5 0 3 1;
#X connect 6 0 2 0;
#X connect 7 0 6 0;
#X connect 8 0 10 0;
#X connect 8 0 3 0;
#X connect 8 0 37 1;
#X connect 8 0 46 1;
#X connect 8 0 45 1;
#X connect 8 1 99 0;
#X connect 9 0 2 0;
#X connect 10 0 11 1;
#X connect 11 0 12 0;
#X connect 11 0 15 0;
#X connect 11 0 37 1;
#X connect 11 0 39 0;
#X connect 11 0 45 1;
#X connect 11 0 46 1;
#X connect 12 0 2 0;
#X connect 13 0 2 0;
#X connect 14 0 11 0;
#X connect 14 1 13 0;
#X connect 14 2 9 0;
#X connect 15 0 40 0;
#X connect 16 0 18 0;
#X connect 16 1 17 0;
#X connect 16 1 48 0;
#X connect 17 0 2 0;
#X connect 18 0 2 0;
#X connect 19 0 20 0;
#X connect 20 0 29 0;
#X connect 20 0 34 0;
#X connect 21 0 2 0;
#X connect 22 0 2 0;
#X connect 23 0 2 0;
#X connect 24 0 25 0;
#X connect 25 0 53 0;
#X connect 26 0 2 0;
#X connect 27 0 2 0;
#X connect 28 0 8 0;
#X connect 29 0 23 0;
#X connect 29 1 22 0;
#X connect 29 1 5 0;
#X connect 29 2 21 0;
#X connect 29 3 30 0;
#X connect 30 0 2 0;
#X connect 31 0 32 0;
#X connect 32 0 6 0;
#X connect 32 1 30 0;
#X connect 33 0 35 0;
#X connect 35 0 29 0;
#X connect 36 0 37 0;
#X connect 37 0 38 0;
#X connect 41 0 43 0;
#X connect 42 0 44 0;
#X connect 43 0 50 0;
#X connect 44 0 45 0;
#X connect 45 0 49 0;
#X connect 46 0 47 0;
#X connect 47 0 51 0;
#X connect 48 0 44 1;
#X connect 48 0 43 1;
#X connect 49 0 46 0;
#X connect 50 0 46 0;
#X connect 52 0 16 0;
#X connect 53 0 26 0;
#X connect 53 0 34 0;
#X connect 54 0 0 0;
#X connect 55 0 0 1;
#X connect 56 0 97 1;
#X connect 57 0 97 2;
#X connect 58 0 97 3;
#X connect 59 0 97 4;
#X connect 60 0 97 5;
#X connect 61 0 97 6;
#X connect 62 0 97 7;
#X connect 63 0 97 8;
#X connect 64 0 97 9;
#X connect 65 0 97 10;
#X connect 66 0 97 11;
#X connect 68 0 70 0;
#X connect 68 1 69 0;
#X connect 72 0 73 0;
#X connect 72 1 74 0;
#X connect 76 0 77 0;
#X connect 76 1 78 0;
#X connect 79 0 81 0;
#X connect 79 1 82 0;
#X connect 80 0 83 0;
#X connect 80 1 84 0;
#X connect 88 0 86 0;
#X connect 88 1 87 0;
#X connect 92 0 93 0;
#X connect 94 0 91 0;
#X connect 95 0 97 12;
#X connect 96 0 97 13;
#X connect 97 0 101 0;
#X connect 98 0 97 14;
#X connect 99 0 89 0;
#X connect 99 1 90 0;
#X connect 99 2 94 0;
#X connect 99 3 92 0;
#X connect 99 4 79 0;
#X connect 99 5 80 0;
#X connect 99 6 85 0;
#X connect 99 7 88 0;
#X connect 99 8 68 0;
#X connect 99 9 72 0;
#X connect 99 10 75 0;
#X connect 99 11 76 0;
#X connect 99 12 71 0;
#X connect 99 13 67 0;
#X connect 99 14 100 0;
#X connect 101 0 102 0;
#X connect 102 0 1 0;
#X restore 464 492 pd patches;
#X obj 477 563 outlet;
#X obj 437 381 route patch file;
#X obj 417 524 s \$0-patch-set;
#X msg 544 492 patch \$1;
#N canvas 638 15 620 401 automation 0;
#X obj 51 28 inlet;
#X obj 479 296 outlet;
#X obj 428 296 outlet;
#X obj 393 53 route all;
#X obj 530 296 outlet;
#X obj 114 311 t f f;
#X obj 134 252 t f f;
#X obj 114 350 s \$0-amp_a;
#X obj 141 331 s \$0-amp_a-set;
#X obj 134 291 s \$0-amp_d;
#X obj 161 272 s \$0-amp_d-set;
#X obj 155 232 s \$0-amp_s-set;
#X obj 175 213 s \$0-amp_r;
#X obj 202 194 s \$0-amp_r-set;
#X obj 175 174 t f f;
#X obj 393 73 unpack f f f f f f f f f f f f f f;
#X obj 51 51 route freq pitch depth res aa ad as ar fa fd fs fr type
porta randpat on;
#X obj 475 16 route precision;
#X obj 475 45 s \$0-precision-set;
#X connect 0 0 16 0;
#X connect 3 0 15 0;
#X connect 3 1 17 0;
#X connect 5 0 7 0;
#X connect 5 1 8 0;
#X connect 6 0 9 0;
#X connect 6 1 10 0;
#X connect 14 0 12 0;
#X connect 14 1 13 0;
#X connect 15 4 5 0;
#X connect 15 5 6 0;
#X connect 15 6 11 0;
#X connect 15 7 14 0;
#X connect 16 4 5 0;
#X connect 16 5 6 0;
#X connect 16 6 11 0;
#X connect 16 7 14 0;
#X connect 16 14 1 0;
#X connect 16 15 4 0;
#X connect 16 16 2 0;
#X connect 16 16 3 0;
#X connect 17 0 18 0;
#X restore 437 336 pd automation;
#X msg 559 378 1;
#X obj 557 351 loadbang;
#N canvas 224 23 861 498 auto_out 0;
#X obj 15 432 outlet;
#X obj 130 386 inlet;
#X obj 14 48 change;
#X obj 82 68 change;
#X obj 223 109 change;
#X obj 274 130 change;
#X obj 338 150 change;
#X obj 388 170 change;
#X obj 438 190 change;
#X obj 487 210 change;
#X obj 536 230 change;
#X obj 191 62 change;
#X obj 15 397 spigot;
#X obj 584 38 inlet;
#X obj 668 36 inlet;
#X msg 585 69 1;
#X msg 663 68 0;
#X obj 509 34 loadbang;
#X obj 105 120 t b f;
#X obj 149 165 t b f;
#X obj 186 200 t b f;
#X obj 240 214 t b f;
#X obj 299 222 t b f;
#X obj 364 253 t b f;
#X obj 410 274 t b f;
#X obj 455 299 t b f;
#X obj 505 318 t b f;
#X obj 191 41 r \$0-fc_eg_depth-num;
#X msg 151 103 depth \$1;
#X obj 223 89 r \$0-res;
#X msg 223 130 res \$1;
#X obj 274 109 r \$0-amp_a-num;
#X msg 274 150 aa \$1;
#X obj 337 129 r \$0-amp_d-num;
#X msg 338 170 ad \$1;
#X obj 388 150 r \$0-amp_s-num;
#X msg 388 190 as \$1;
#X obj 438 170 r \$0-amp_r-num;
#X msg 438 210 ar \$1;
#X obj 487 190 r \$0-fc_a-num;
#X msg 487 230 fa \$1;
#X obj 536 210 r \$0-fc_d-num;
#X msg 536 250 fd \$1;
#X obj 586 250 change;
#X obj 555 338 t b f;
#X obj 636 270 change;
#X obj 605 340 t b f;
#X obj 586 230 r \$0-fc_s-num;
#X obj 636 250 r \$0-fc_r-num;
#X msg 586 270 fs \$1;
#X msg 636 290 fr \$1;
#X obj 295 386 pack f f f f f f f f f f f f f f;
#X obj 686 290 change;
#X obj 649 336 t b f;
#X obj 736 310 change;
#X obj 699 338 t b f;
#X obj 686 270 r \$0-type;
#X obj 736 290 r \$0-porta;
#X msg 686 310 type \$1;
#X msg 736 330 porta \$1;
#X obj 14 8 r \$0-freq;
#X obj 82 28 r \$0-pitch;
#X msg 14 68 freq \$1;
#X msg 82 88 pitch \$1;
#X obj 14 28 route set;
#X obj 82 48 route set;
#X obj 152 27 del 0;
#X obj 151 7 t b;
#X obj 195 14 s \$0-freq-set;
#X obj 760 218 r \$0-precision;
#X msg 761 244 precision \$1;
#X obj 130 407 list prepend file;
#X obj 130 428 list trim;
#X obj 295 427 list prepend all;
#X obj 295 448 list trim;
#X connect 1 0 71 0;
#X connect 2 0 62 0;
#X connect 2 0 51 0;
#X connect 3 0 63 0;
#X connect 3 0 18 0;
#X connect 4 0 30 0;
#X connect 4 0 20 0;
#X connect 5 0 32 0;
#X connect 5 0 21 0;
#X connect 6 0 34 0;
#X connect 6 0 22 0;
#X connect 7 0 36 0;
#X connect 7 0 23 0;
#X connect 8 0 38 0;
#X connect 8 0 24 0;
#X connect 9 0 40 0;
#X connect 9 0 25 0;
#X connect 10 0 42 0;
#X connect 10 0 26 0;
#X connect 11 0 28 0;
#X connect 11 0 19 0;
#X connect 12 0 0 0;
#X connect 13 0 15 0;
#X connect 14 0 16 0;
#X connect 15 0 12 1;
#X connect 16 0 12 1;
#X connect 17 0 15 0;
#X connect 18 0 51 0;
#X connect 18 1 51 1;
#X connect 19 0 51 0;
#X connect 19 1 51 2;
#X connect 20 0 51 0;
#X connect 20 1 51 3;
#X connect 21 0 51 0;
#X connect 21 1 51 4;
#X connect 22 0 51 0;
#X connect 22 1 51 5;
#X connect 23 0 51 0;
#X connect 23 1 51 6;
#X connect 24 0 51 0;
#X connect 24 1 51 7;
#X connect 25 0 51 0;
#X connect 25 1 51 8;
#X connect 26 0 51 0;
#X connect 26 1 51 9;
#X connect 27 0 11 0;
#X connect 28 0 12 0;
#X connect 29 0 4 0;
#X connect 30 0 12 0;
#X connect 31 0 5 0;
#X connect 32 0 12 0;
#X connect 33 0 6 0;
#X connect 34 0 12 0;
#X connect 35 0 7 0;
#X connect 36 0 12 0;
#X connect 37 0 8 0;
#X connect 38 0 12 0;
#X connect 39 0 9 0;
#X connect 40 0 12 0;
#X connect 41 0 10 0;
#X connect 42 0 12 0;
#X connect 43 0 49 0;
#X connect 43 0 44 0;
#X connect 44 0 51 0;
#X connect 44 1 51 10;
#X connect 45 0 50 0;
#X connect 45 0 46 0;
#X connect 46 0 51 0;
#X connect 46 1 51 11;
#X connect 47 0 43 0;
#X connect 48 0 45 0;
#X connect 49 0 12 0;
#X connect 50 0 12 0;
#X connect 51 0 73 0;
#X connect 52 0 58 0;
#X connect 52 0 53 0;
#X connect 53 0 51 0;
#X connect 53 1 51 12;
#X connect 54 0 59 0;
#X connect 54 0 55 0;
#X connect 55 0 51 0;
#X connect 55 1 51 13;
#X connect 56 0 52 0;
#X connect 57 0 54 0;
#X connect 58 0 12 0;
#X connect 59 0 12 0;
#X connect 60 0 64 0;
#X connect 61 0 65 0;
#X connect 62 0 12 0;
#X connect 63 0 12 0;
#X connect 64 0 2 0;
#X connect 64 1 2 0;
#X connect 65 1 3 0;
#X connect 65 1 67 0;
#X connect 66 0 68 0;
#X connect 67 0 66 0;
#X connect 69 0 70 0;
#X connect 70 0 12 0;
#X connect 71 0 72 0;
#X connect 72 0 0 0;
#X connect 73 0 74 0;
#X connect 74 0 0 0;
#X restore 532 517 pd auto_out;
#X obj 534 446 r \$0-patch-num;
#X obj 545 469 t b f b;
#N canvas 0 0 529 407 init 0;
#X obj 90 7 r \$0-type;
#X obj 92 89 s \$0-type-set;
#X obj 89 33 sel 0 1 2 3;
#X msg 40 60 label lpf;
#X msg 107 60 label hpf;
#X msg 170 60 label bpf;
#X msg 237 60 label brf;
#X obj 142 364 s \$0-amp_a-set;
#X obj 162 305 s \$0-amp_d-set;
#X obj 156 265 s \$0-amp_s-set;
#X obj 203 227 s \$0-amp_r-set;
#X msg 135 335 3;
#X msg 108 281 120;
#X msg 104 237 100;
#X msg 183 203 1000;
#X obj 218 97 loadbang;
#X connect 0 0 2 0;
#X connect 2 0 3 0;
#X connect 2 1 4 0;
#X connect 2 2 5 0;
#X connect 2 3 6 0;
#X connect 3 0 1 0;
#X connect 4 0 1 0;
#X connect 5 0 1 0;
#X connect 6 0 1 0;
#X connect 11 0 7 0;
#X connect 12 0 8 0;
#X connect 13 0 9 0;
#X connect 14 0 10 0;
#X connect 15 0 14 0;
#X connect 15 0 13 0;
#X connect 15 0 12 0;
#X connect 15 0 11 0;
#X restore 394 230 pd init;
#X obj 116 507 *~;
#N canvas 0 0 758 669 adsr~ 0;
#X obj 115 121 inlet;
#X text 111 96 trigger;
#X obj 115 149 sel 0;
#X obj 254 165 t b;
#X obj 176 299 pack 0 \$2;
#X obj 502 161 inlet;
#X obj 448 291 del \$2;
#X obj 468 439 line~;
#X obj 472 314 f \$4;
#X obj 511 389 pack 0 \$3;
#X obj 564 161 inlet;
#X obj 626 161 inlet;
#X obj 699 160 inlet;
#X msg 115 180 stop;
#X obj 622 316 pack 0 \$5;
#X text 445 139 level;
#X obj 468 464 outlet~;
#X text 112 388 and pack with;
#X text 113 408 attack time;
#X text 41 136 if zero;
#X text 42 153 release;
#X text 22 170 and cancel;
#X text 53 187 decay;
#X text 294 282 on attack \, set a;
#X text 288 315 recall sustain value;
#X text 325 388 pack with decay time;
#X text 615 342 on release ramp;
#X text 616 359 back to zero;
#X obj 472 339 * 0.01;
#X text 57 577 Objects such as "f" and "pack" can be given dollar sign
arguments to initialize their contents from adsr's creation arguments.
Inlets are supplied to change them on the fly.;
#X text 23 12 ADSR ENVELOPE;
#X text 498 139 attack;
#X text 565 138 decay;
#X text 619 139 sustain;
#X text 696 139 release;
#X text 212 81 attack;
#X obj 214 102 moses;
#X obj 204 132 t b b;
#X msg 138 300 0;
#X text 30 283 optionally;
#X text 20 301 bash to zero;
#X text 35 256 ATTACK:;
#X text 59 487 When you send this patch a positive trigger it schedules
a line~ to do an attack and decay \, and if zero \, it starts the release
ramp.;
#X text 505 639 Updated for Pd version 0.37;
#X text 265 99 test for negative trigger;
#X text 263 123 if so \, zero;
#X text 264 139 the output;
#X text 288 175 in any case;
#X text 313 365 multiply by peak level;
#X text 290 296 delay for sustain;
#X text 286 338 convert from percent;
#X text 165 350 ... then;
#X text 113 369 recall peak level;
#X text 449 123 peak;
#X text 291 159 ... do this;
#X text 57 539 Negative triggers cause the output to jump to zero and
then attack (instead of attacking from the current location).;
#X text 218 11 Arguments: level \, attack time \, decay time \, sustain
level \, release time. A \, D \, and R are in msec and S is in percent.
This patch is used as an abstraction in various examples.;
#X msg 215 248 1;
#X connect 0 0 2 0;
#X connect 2 0 13 0;
#X connect 2 0 14 0;
#X connect 2 1 36 0;
#X connect 3 0 6 0;
#X connect 3 0 57 0;
#X connect 4 0 7 0;
#X connect 5 0 4 1;
#X connect 5 0 6 1;
#X connect 6 0 8 0;
#X connect 7 0 16 0;
#X connect 8 0 28 0;
#X connect 9 0 7 0;
#X connect 10 0 9 1;
#X connect 11 0 8 1;
#X connect 12 0 14 1;
#X connect 13 0 6 0;
#X connect 14 0 7 0;
#X connect 28 0 9 0;
#X connect 36 0 37 0;
#X connect 36 1 3 0;
#X connect 37 0 3 0;
#X connect 37 1 38 0;
#X connect 38 0 7 0;
#X connect 57 0 4 0;
#X restore 241 366 pd adsr~;
#X obj 252 273 r \$0-amp_a-num;
#X obj 263 293 r \$0-amp_d-num;
#X obj 274 313 r \$0-amp_s-num;
#X obj 286 333 r \$0-amp_r-num;
#X obj 116 540 outlet~;
#X obj 553 408 s \$0-patch_on;
#X msg 314 56 44100;
#X obj 308 82 / 64;
#X floatatom 332 176 0 0 0 0 - - -;
#X floatatom 312 129 5 0 0 0 - - -, f 5;
#X obj 306 155 expr 1000/$f1;
#X obj 351 83 / 4;
#X msg 361 58 44100;
#X obj 381 107 / 16;
#X msg 380 81 44100;
#X obj 11 92 cnv 15 141 22 empty empty empty 20 12 0 14 -183672 -66577
0;
#X obj 13 100 nbx 3 12 0 120 0 0 empty empty empty -2 -6 0 7 -257472
-1109 -90133 0 256;
#X obj 55 100 nbx 3 12 1 3 0 0 \$0-patch-num \$0-patch-set select 0
-5 0 7 -17235 -261234 -17235 1 256;
#X obj 100 100 bng 12 250 50 0 \$0-store_patch \$0-store_patch-bng
store -3 -5 0 7 -17235 -262130 -17235;
#X obj 121 95 bng 10 250 50 0 \$0-patches_load \$0-patches_load-bng
load -5 16 0 7 -2498 -262144 -13381;
#X obj 134 95 bng 10 250 50 0 \$0-patches_save \$0-patches_save-bng
save 0 16 0 7 -159809 -262144 -86277;
#X obj 13 100 nbx 3 12 0 120 0 0 \$0-patches-dummy \$0-patches-num
patches 0 -5 0 7 -17235 -203904 -17235 0 256;
#X obj 86 104 bng 8 250 50 0 \$0-store_plus \$0-store_plus-bng + 2
-4 0 7 -17235 -198336 -17235;
#X obj 44 104 bng 8 250 50 0 \$0-store_minus \$0-store_minus-bng -
1 -5 0 10 -17235 -257985 -17235;
#X obj 12 44 mknob 25 400 1.452 14520 1 0 \$0-amp_a \$0-amp_a-set a
10 4 0 10 -89780 -13780 -13780 3144 1;
#X obj 50 44 mknob 25 400 1.452 14520 1 0 \$0-amp_d \$0-amp_d-set d
10 4 0 10 -89780 -13780 -13780 19124 1;
#X obj 88 44 mknob 25 400 0 100 0 0 \$0-amp_s \$0-amp_s-set s 10 4
0 10 -89780 -13780 -13780 39900 1;
#X obj 126 44 mknob 25 500 2 20000 1 0 \$0-amp_r \$0-amp_r-set r 10
4 0 10 -89780 -13780 -13780 33670 1;
#X obj 13 69 nbx 5 10 1.452 14520 1 0 \$0-amp_a-num \$0-amp_a empty
0 -8 0 8 -89779 -1 -1 3.00023 256;
#X obj 46 79 nbx 5 10 1.452 14520 1 0 \$0-amp_d-num \$0-amp_d empty
0 -8 0 8 -89779 -1 -1 119.994 256;
#X obj 79 69 nbx 4 10 0 100 0 0 \$0-amp_s-num \$0-amp_s empty 0 -8
0 8 -89779 -1 -1 100 256;
#X obj 108 79 nbx 5 10 1.453 99999 1 0 \$0-amp_r-num \$0-amp_r empty
0 -8 0 8 -89779 -1 -1 1000.06 256;
#X obj 241 162 inlet;
#X obj 176 233 t b b;
#X msg 198 254 1;
#X msg 162 333 0;
#X obj 161 295 delay;
#X text 215 130 float = gate;
#X text 190 139 bang = trig (AR eg);
#X text 163 213 trig (AR);
#X text 519 159 and they could have modes where they use a phasor~
output for samphold triggering...?;
#X obj 212 193 route float bang;
#X text 393 131 Note for Metastudio 4: all eg units could have seperate
inlets for gate/trig and automation;
#X obj 256 237 bng 15 250 50 0 empty empty empty 17 7 0 10 -262144
-1 -1;
#X obj 161 158 bng 15 250 50 0 empty empty empty 17 7 0 10 -262144
-1 -1;
#X connect 3 0 16 0;
#X connect 4 0 12 0;
#X connect 4 1 8 0;
#X connect 6 0 7 0;
#X connect 6 1 4 0;
#X connect 8 0 6 0;
#X connect 9 0 6 0;
#X connect 9 1 4 2;
#X connect 9 2 23 0;
#X connect 10 0 23 0;
#X connect 11 0 10 0;
#X connect 12 0 5 0;
#X connect 13 0 14 0;
#X connect 14 0 12 1;
#X connect 14 1 4 1;
#X connect 14 2 12 2;
#X connect 16 0 22 0;
#X connect 17 0 16 1;
#X connect 18 0 17 1;
#X connect 18 0 54 1;
#X connect 19 0 17 2;
#X connect 20 0 17 3;
#X connect 21 0 17 4;
#X connect 24 0 25 0;
#X connect 25 0 27 0;
#X connect 27 0 28 0;
#X connect 28 0 26 0;
#X connect 29 0 27 0;
#X connect 30 0 29 0;
#X connect 31 0 27 0;
#X connect 32 0 31 0;
#X connect 50 0 59 0;
#X connect 51 0 54 0;
#X connect 51 1 52 0;
#X connect 52 0 17 0;
#X connect 53 0 17 0;
#X connect 54 0 53 0;
#X connect 59 0 17 0;
#X connect 59 1 51 0;
#X connect 59 1 61 0;
#X connect 59 2 9 0;
#X connect 62 0 59 0;
#X coords 0 -1 1 1 143 87 1 10 30;
