#N canvas 118 89 885 467 10;
#X declare -lib zexy;
#X declare -lib lib/wavestretcher~;
#X obj 439 373 declare -lib zexy;
#X obj 34 85 inlet~;
#X obj 106 271 wavecutter~;
#X obj 352 45 inlet~;
#X obj 432 164 cnv 15 91 150 empty empty empty 20 12 0 14 -162304 -66577
0;
#X obj 442 183 moonlib/mknob 32 201 -1 1 0 0 empty \$0-thresh-set thresh
4 -7 1 8 -126001 -13330 -13330 10000 1;
#X floatatom 442 220 5 0 0 0 - - #0-thresh, f 5;
#X obj 482 183 moonlib/mknob 32 201 -1 1 0 0 empty \$0-invert-set invert
6 -7 1 8 -126001 -13330 -13330 0 1;
#X floatatom 482 220 5 0 0 0 - - #0-invert, f 5;
#X obj 442 253 moonlib/mknob 32 401 -1 1 0 0 empty \$0-thresh_mod-set
ModT 7 -7 1 8 -198577 -45076 -45076 20000 1;
#X floatatom 442 290 5 0 0 0 - - #0-thresh_mod, f 5;
#X obj 482 253 moonlib/mknob 32 401 -1 1 0 0 empty \$0-invert_mod-set
ModI 7 -7 1 8 -198577 -45076 -45076 20000 1;
#X floatatom 482 290 5 0 0 0 - - #0-invert_mod, f 5;
#X obj 432 133 cnv 15 186 30 empty empty Wavecutter_FX~ 10 16 0 14
-207552 -45076 0;
#X obj 524 164 cnv 15 94 150 empty empty LFO 48 8 0 12 -224128 -45076
0;
#X obj 531 221 moonlib/mknob 26 201 -1 1 0 0 empty \$0-LFO_wshape-set
wshape 0 -7 1 8 -261234 -258113 -258113 10000 1;
#X floatatom 531 250 4 0 0 0 - - #0-LFO_wshape, f 4;
#X obj 529 180 hradio 12 1 0 4 \$0-LFO_wave \$0-LFO_wave-set empty
0 -8 0 10 -261234 -258113 -258113 0;
#X symbolatom 581 179 5 0 0 0 - #0-LFO_wave_name -, f 5;
#X obj 571 221 moonlib/mknob 26 201 -1 1 0 0 empty \$0-LFO_PW-set PW
4 -7 1 8 -261234 -258113 -258113 10000 1;
#X floatatom 571 250 4 0 0 0 - - #0-LFO_PW, f 4;
#X obj 529 195 tgl 12 0 \$0-LFO_phase_sync \$0-LFO_phase_sync-set sync_phase
14 6 0 10 -261234 -258113 -258113 0 1;
#N canvas 1 82 544 565 LFO 0;
#X obj 65 64 pack f 10;
#X obj 65 86 line~;
#X obj 66 148 phasor~;
#X obj 66 180 wavefolder~;
#X obj 204 219 == 0;
#X obj 81 220 == 1;
#X obj 132 220 == 2;
#X obj 62 242 *~;
#X obj 118 244 *~;
#X obj 185 244 *~;
#X obj 206 173 cos~;
#X obj 201 299 pack f 10;
#X obj 201 321 line~;
#X obj 329 299 pack f 10;
#X obj 329 321 line~;
#X obj 183 361 *~;
#X obj 183 383 outlet~;
#X obj 313 361 *~;
#X obj 313 383 outlet~;
#X obj 277 175 s \$0-LFO_wave_name;
#X msg 210 136 set sine;
#X msg 283 136 set fold;
#X msg 360 136 set pulse;
#X obj 140 86 r \$0-LFO_wave;
#X obj 189 43 pack f 10;
#X obj 189 65 line~;
#X obj 295 43 pack f 10;
#X obj 295 65 line~;
#X msg 25 117 bipolar 1;
#X obj 27 12 loadbang;
#X obj 65 42 r \$0-LFO_freq;
#X obj 189 21 r \$0-LFO_wshape;
#X obj 295 21 r \$0-LFO_PW;
#X obj 414 28 r \$0-LFO_phase_sync;
#X obj 368 79 spigot;
#X obj 369 47 inlet;
#X obj 363 102 t b;
#X msg 301 100 0;
#X obj 461 275 outlet~;
#X obj 201 277 r \$0-thresh_mod;
#X obj 329 277 r \$0-invert_mod;
#X obj 272 218 == 3;
#X obj 265 241 *~;
#X obj 452 105 inlet~;
#X obj 210 114 sel 0 1 2 3;
#X msg 437 135 set ext;
#X connect 0 0 1 0;
#X connect 1 0 2 0;
#X connect 2 0 3 0;
#X connect 2 0 10 0;
#X connect 3 0 7 0;
#X connect 3 1 8 0;
#X connect 4 0 9 1;
#X connect 5 0 7 1;
#X connect 6 0 8 1;
#X connect 7 0 15 0;
#X connect 7 0 17 0;
#X connect 7 0 38 0;
#X connect 8 0 15 0;
#X connect 8 0 17 0;
#X connect 8 0 38 0;
#X connect 9 0 15 0;
#X connect 9 0 17 0;
#X connect 9 0 38 0;
#X connect 10 0 9 0;
#X connect 11 0 12 0;
#X connect 12 0 15 1;
#X connect 13 0 14 0;
#X connect 14 0 17 1;
#X connect 15 0 16 0;
#X connect 17 0 18 0;
#X connect 20 0 19 0;
#X connect 21 0 19 0;
#X connect 22 0 19 0;
#X connect 23 0 5 0;
#X connect 23 0 6 0;
#X connect 23 0 4 0;
#X connect 23 0 41 0;
#X connect 23 0 44 0;
#X connect 24 0 25 0;
#X connect 25 0 3 1;
#X connect 26 0 27 0;
#X connect 27 0 3 2;
#X connect 28 0 3 0;
#X connect 29 0 28 0;
#X connect 30 0 0 0;
#X connect 31 0 24 0;
#X connect 32 0 26 0;
#X connect 33 0 34 1;
#X connect 34 0 36 0;
#X connect 35 0 34 0;
#X connect 36 0 37 0;
#X connect 37 0 2 1;
#X connect 39 0 11 0;
#X connect 40 0 13 0;
#X connect 41 0 42 1;
#X connect 42 0 15 0;
#X connect 42 0 17 0;
#X connect 43 0 42 0;
#X connect 44 0 20 0;
#X connect 44 1 21 0;
#X connect 44 2 22 0;
#X connect 44 3 45 0;
#X connect 45 0 19 0;
#X restore 224 85 pd LFO;
#X obj 619 133 cnv 15 45 181 empty empty empty 20 12 0 14 -183672 -66577
0;
#X obj 622 143 nbx 3 15 0 999 0 0 empty empty empty -2 -6 0 10 -257472
-1109 -90133 0 256;
#X obj 622 172 nbx 3 15 1 11 0 0 \$0-patch-num \$0-patch-set select
0 -5 0 10 -17235 -261234 -17235 1 256;
#X obj 629 215 bng 15 250 50 0 \$0-store_patch \$0-store_patch-bng
store -3 -5 0 7 -17235 -262130 -17235;
#X obj 633 259 bng 16 250 50 0 \$0-patches_load \$0-patches_load-bng
load -3 -5 0 10 -2498 -262144 -13381;
#X obj 633 280 bng 16 250 50 0 \$0-patches_save \$0-patches_save-bng
save -2 22 0 10 -159809 -262144 -86277;
#X obj 622 143 nbx 3 15 0 999 0 0 \$0-patches-dummy \$0-patches-num
patches 0 -5 0 10 -17235 -203904 -17235 0 256;
#X obj 639 233 bng 8 250 50 0 \$0-replace_patch \$0-replace_patch-bng
ovw -15 4 0 7 -17235 -262130 -17235;
#X obj 646 192 bng 12 250 50 0 \$0-store_plus \$0-store_plus-bng +
-7 4 0 10 -17235 -198336 -17235;
#X obj 622 192 bng 12 250 50 0 \$0-store_minus \$0-store_minus-bng
- 8 3 0 17 -17235 -257985 -17235;
#X obj 622 286 bng 8 250 50 0 \$0-patches_resave \$0-patches_resave-bng
re -2 15 0 8 -159809 -262144 -86277;
#N canvas 8 71 1272 637 patches 0;
#N canvas 316 281 922 487 presets 0;
#X obj 22 182 t b a;
#X msg 310 253 add patches 0;
#X obj 307 215 loadbang;
#X obj 201 416 route patches;
#X msg 244 202 goto 0;
#X msg 156 331 replace patches \$1;
#X msg 207 252 this;
#X obj 21 212 t b b b;
#X msg 474 395 range 1 \$1;
#X obj 484 181 t b f;
#X msg 499 205 goto \$1;
#X msg 464 204 this;
#X obj 250 68 r \$0-patches_load;
#X obj 250 95 openpanel;
#X msg 324 141 read \$1;
#X msg 280 141 goto 0;
#X msg 250 141 this;
#X obj 534 249 r \$0-patches_save;
#X obj 534 275 savepanel;
#X msg 533 340 write \$1;
#X msg 364 186 print;
#X obj 202 386 route list;
#X obj 250 122 t b b a b;
#X msg 378 287 clear;
#X obj 417 161 t b b;
#X obj 603 120 inlet;
#X obj 559 459 outlet;
#X obj 554 83 symbol;
#X obj 705 428 inlet;
#X obj 706 453 random;
#X obj 705 475 outlet;
#X obj 474 412 s \$0-patch-set;
#X obj 802 297 r \$0-store_plus;
#X obj 686 297 r \$0-store_minus;
#X obj 802 321 f;
#X obj 686 331 f;
#X obj 686 351 +;
#X obj 731 348 %;
#X obj 731 368 + 1;
#X obj 664 266 - 1;
#X obj 686 372 - 1;
#X obj 802 342 + 1;
#X obj 725 389 s \$0-patch-set;
#X obj 558 129 inlet;
#X obj 208 282 msgfile;
#X obj 534 297 makesymbol %s.dlf;
#X obj 18 40 inlet;
#X obj 288 448 outlet;
#X obj 419 135 r \$0-patches_clear;
#X obj 24 86 spigot 1;
#X obj 144 133 spigot;
#X obj 231 28 inlet;
#X obj 84 85 == 0;
#X obj 410 249 r \$0-patches_resave;
#X msg 451 319 write /media/files/puredata/2016/WF_DEMOS/wcut_patches.dlf
;
#X msg 451 297 set write \$1;
#X obj 296 360 spigot;
#X msg 340 359 0;
#X msg 341 342 1;
#X obj 296 377 s \$0-patches-num;
#X obj 156 278 f;
#X obj 172 261 + 1;
#X obj 22 109 list prepend add;
#X obj 22 130 list trim;
#X obj 144 164 list prepend replace;
#X obj 144 185 list trim;
#X connect 0 0 7 0;
#X connect 0 1 44 0;
#X connect 1 0 44 0;
#X connect 2 0 1 0;
#X connect 3 0 29 1;
#X connect 3 0 37 1;
#X connect 3 0 36 1;
#X connect 3 0 56 0;
#X connect 3 0 61 0;
#X connect 3 1 47 0;
#X connect 4 0 44 0;
#X connect 5 0 44 0;
#X connect 6 0 44 0;
#X connect 7 0 60 0;
#X connect 7 1 6 0;
#X connect 7 2 4 0;
#X connect 7 2 58 0;
#X connect 8 0 31 0;
#X connect 9 0 11 0;
#X connect 9 1 10 0;
#X connect 9 1 39 0;
#X connect 10 0 44 0;
#X connect 11 0 44 0;
#X connect 12 0 13 0;
#X connect 13 0 22 0;
#X connect 13 0 26 0;
#X connect 14 0 44 0;
#X connect 15 0 44 0;
#X connect 16 0 44 0;
#X connect 17 0 18 0;
#X connect 18 0 45 0;
#X connect 19 0 44 0;
#X connect 20 0 44 0;
#X connect 21 0 3 0;
#X connect 22 0 16 0;
#X connect 22 1 15 0;
#X connect 22 1 58 0;
#X connect 22 2 14 0;
#X connect 22 2 55 0;
#X connect 22 3 23 0;
#X connect 23 0 44 0;
#X connect 24 0 1 0;
#X connect 24 1 23 0;
#X connect 25 0 27 0;
#X connect 27 0 22 0;
#X connect 28 0 29 0;
#X connect 29 0 30 0;
#X connect 32 0 34 0;
#X connect 33 0 35 0;
#X connect 34 0 41 0;
#X connect 35 0 36 0;
#X connect 36 0 40 0;
#X connect 37 0 38 0;
#X connect 38 0 42 0;
#X connect 39 0 35 1;
#X connect 39 0 34 1;
#X connect 40 0 37 0;
#X connect 41 0 37 0;
#X connect 43 0 9 0;
#X connect 44 0 21 0;
#X connect 45 0 19 0;
#X connect 45 0 26 0;
#X connect 45 0 55 0;
#X connect 46 0 49 0;
#X connect 46 0 50 0;
#X connect 48 0 24 0;
#X connect 49 0 62 0;
#X connect 50 0 64 0;
#X connect 51 0 52 0;
#X connect 51 0 50 1;
#X connect 52 0 49 1;
#X connect 53 0 54 0;
#X connect 54 0 44 0;
#X connect 55 0 54 0;
#X connect 56 0 57 0;
#X connect 56 0 59 0;
#X connect 56 0 8 0;
#X connect 57 0 56 1;
#X connect 58 0 56 1;
#X connect 60 0 5 0;
#X connect 60 0 29 1;
#X connect 60 0 36 1;
#X connect 60 0 37 1;
#X connect 60 0 59 0;
#X connect 60 0 8 0;
#X connect 61 0 60 1;
#X connect 62 0 63 0;
#X connect 63 0 0 0;
#X connect 64 0 65 0;
#X connect 65 0 44 0;
#X restore 246 278 pd presets;
#X msg 322 277 patch \$1;
#X obj 275 247 r \$0-patch-num;
#X obj 576 279 route patch file randpat;
#X obj 572 245 inlet;
#X obj 576 301 s \$0-patch-set;
#X obj 239 190 f;
#X obj 183 134 r \$0-store_patch;
#X obj 183 155 t b b;
#X obj 111 87 r \$0-replace_patch;
#X obj 111 108 t b b;
#X msg 138 129 1;
#X msg 225 163 0;
#X obj 998 422 s \$0-on-set;
#X obj 254 41 r \$0-thresh;
#X obj 268 61 r \$0-invert;
#X obj 281 81 r \$0-thresh_mod;
#X obj 308 121 r \$0-LFO_freq;
#X obj 321 141 r \$0-LFO_wshape;
#X obj 334 161 r \$0-LFO_PW;
#X obj 348 181 r \$0-LFO_wave;
#X obj 361 201 r \$0-LFO_phase_sync;
#X obj 255 227 pack f f f f f f f f f, f 58;
#X obj 233 575 s \$0-thresh-set;
#X obj 246 556 s \$0-invert-set;
#X obj 294 101 r \$0-invert_mod;
#X obj 274 516 s \$0-invert_mod-set;
#X obj 260 536 s \$0-thresh_mod-set;
#X obj 288 496 s \$0-LFO_freq-set;
#X obj 302 476 s \$0-LFO_wshape-set;
#X obj 315 456 s \$0-LFO_PW-set;
#X obj 329 436 s \$0-LFO_wave-set;
#X obj 343 416 s \$0-LFO_phase_sync-set;
#X obj 233 344 unpack f f f f f f f f f;
#X obj 689 343 route thresh invert thmod inmod LFOfreq LFOshape LFOPW
LFOwave LFOsync on;
#X obj 1041 341 route reset;
#X obj 1038 369 s \$0-reset-bng;
#X connect 0 0 33 0;
#X connect 0 2 1 0;
#X connect 1 0 3 0;
#X connect 2 0 0 2;
#X connect 3 0 5 0;
#X connect 3 1 0 3;
#X connect 3 2 0 4;
#X connect 3 3 34 0;
#X connect 4 0 3 0;
#X connect 6 0 22 0;
#X connect 7 0 8 0;
#X connect 8 0 6 0;
#X connect 8 1 12 0;
#X connect 9 0 10 0;
#X connect 10 0 6 0;
#X connect 10 1 11 0;
#X connect 11 0 0 1;
#X connect 12 0 0 1;
#X connect 14 0 6 1;
#X connect 15 0 22 1;
#X connect 16 0 22 2;
#X connect 17 0 22 4;
#X connect 18 0 22 5;
#X connect 19 0 22 6;
#X connect 20 0 22 7;
#X connect 21 0 22 8;
#X connect 22 0 0 0;
#X connect 25 0 22 3;
#X connect 33 0 23 0;
#X connect 33 1 24 0;
#X connect 33 2 27 0;
#X connect 33 3 26 0;
#X connect 33 4 28 0;
#X connect 33 5 29 0;
#X connect 33 6 30 0;
#X connect 33 7 31 0;
#X connect 33 8 32 0;
#X connect 34 0 23 0;
#X connect 34 1 24 0;
#X connect 34 2 27 0;
#X connect 34 3 26 0;
#X connect 34 4 28 0;
#X connect 34 5 29 0;
#X connect 34 6 30 0;
#X connect 34 7 31 0;
#X connect 34 8 32 0;
#X connect 34 9 13 0;
#X connect 34 10 35 0;
#X connect 35 0 36 0;
#X restore 502 80 pd patches;
#X obj 101 23 inlet;
#X obj 133 197 +~;
#X obj 142 146 pack f 10;
#X obj 142 168 line~;
#X obj 142 122 r \$0-thresh;
#X obj 203 227 +~;
#X obj 212 176 pack f 10;
#X obj 212 198 line~;
#X obj 212 152 r \$0-invert;
#X obj 99 326 outlet~;
#X obj 577 276 bng 14 250 50 0 \$0-LFO-sync \$0-LFO-set sync -2 -6
0 8 -261234 -258113 -258113;
#X obj 533 282 moonlib/mknob 26 401 0.05 500 1 0 empty \$0-LFO_freq-set
freq 4 -7 1 8 -261234 -258113 -258113 12967 1;
#X floatatom 571 294 5 0 0 0 - - #0-LFO_freq, f 5;
#X obj 112 48 route notein;
#X obj 112 70 unpack;
#X obj 159 70 > 0;
#X obj 159 92 sel 1;
#N canvas 433 184 450 300 init 0;
#X obj 101 333 s \$0-thresh-set;
#X obj 114 314 s \$0-invert-set;
#X obj 142 274 s \$0-invert_mod-set;
#X obj 128 294 s \$0-thresh_mod-set;
#X obj 156 254 s \$0-LFO_freq-set;
#X obj 170 234 s \$0-LFO_wshape-set;
#X obj 183 214 s \$0-LFO_PW-set;
#X obj 197 194 s \$0-LFO_wave-set;
#X obj 211 174 s \$0-LFO_phase_sync-set;
#X msg 67 259 0;
#X msg 86 237 -1;
#X msg 108 174 0.99;
#X obj 73 135 loadbang;
#X obj 132 133 r \$0-reset;
#X connect 9 0 0 0;
#X connect 9 0 2 0;
#X connect 9 0 3 0;
#X connect 9 0 5 0;
#X connect 9 0 8 0;
#X connect 9 0 7 0;
#X connect 9 0 6 0;
#X connect 10 0 1 0;
#X connect 11 0 4 0;
#X connect 12 0 9 0;
#X connect 12 0 10 0;
#X connect 12 0 11 0;
#X connect 13 0 10 0;
#X connect 13 0 9 0;
#X restore 317 112 pd init;
#X obj 252 112 outlet~;
#X obj 316 291 t b f;
#X msg 316 313 1000;
#X obj 316 335 /;
#X floatatom 316 357 5 0 0 0 - - -, f 5;
#X obj 235 363 f;
#X obj 189 394 s \$0-LFO_freq-set;
#X obj 217 44 route duration;
#X obj 216 340 r \$0-LFO-sync;
#X obj 499 49 inlet;
#X obj 565 139 tgl 18 0 \$0-on \$0-on-set ON 21 9 0 10 -1 -258113 -86277
1 1;
#X obj 618 49 r \$0-on;
#X obj 618 71 switch~;
#X obj 601 145 bng 11 250 50 0 \$0-reset \$0-reset-bng reset -7 -6
0 8 -1 -258113 -1;
#X obj 439 345 declare -lib lib/wavestretcher~;
#X connect 1 0 2 0;
#X connect 2 0 44 0;
#X connect 3 0 22 1;
#X connect 5 0 6 0;
#X connect 7 0 8 0;
#X connect 9 0 10 0;
#X connect 11 0 12 0;
#X connect 15 0 16 0;
#X connect 19 0 20 0;
#X connect 22 0 36 0;
#X connect 22 1 40 0;
#X connect 22 2 53 0;
#X connect 35 0 48 0;
#X connect 36 0 2 1;
#X connect 37 0 38 0;
#X connect 38 0 36 1;
#X connect 39 0 37 0;
#X connect 40 0 2 2;
#X connect 41 0 42 0;
#X connect 42 0 40 1;
#X connect 43 0 41 0;
#X connect 46 0 47 0;
#X connect 48 0 49 0;
#X connect 48 1 60 0;
#X connect 49 0 50 0;
#X connect 50 0 51 0;
#X connect 51 0 22 0;
#X connect 54 0 55 0;
#X connect 54 1 56 1;
#X connect 55 0 56 0;
#X connect 56 0 57 0;
#X connect 57 0 58 1;
#X connect 58 0 59 0;
#X connect 60 0 54 0;
#X connect 61 0 58 0;
#X connect 62 0 34 0;
#X connect 64 0 65 0;
#X coords 0 -1 1 1 233 187 1 432 130;
