#N canvas 9 55 871 921 10;
#X obj 140 129 phasor~;
#X floatatom 141 109 0 0 0 0 - - -;
#X obj 141 89 mtof;
#X floatatom 141 70 5 0 0 0 - - -, f 5;
#X obj 131 27 loadbang;
#X obj 19 280 *~;
#X obj 27 309 dac~;
#X msg 66 101 bipolar \$1;
#X obj 67 81 tgl 15 0 empty empty empty 17 7 0 10 -262144 -1 -1 1 1
;
#X msg 67 61 1;
#X msg 142 49 48;
#X obj 140 232 wavefolder~;
#X obj 68 278 *~;
#X obj 33 257 dbtorms;
#X obj 33 149 vsl 22 101 0 100 0 0 empty empty TriSaw 0 -9 0 10 -262144
-1 -1 9000 1;
#X obj 83 257 dbtorms;
#X obj 83 150 vsl 22 101 0 100 0 0 empty empty PWM 0 -9 0 10 -262144
-1 -1 0 1;
#X obj 211 129 * 0.01;
#X floatatom 211 110 5 -100 100 1 TriSaw - -, f 5;
#X floatatom 211 150 5 0 0 1 shape - -, f 5;
#X obj 291 129 * 0.01;
#X floatatom 291 110 5 -100 100 1 PWM - -, f 5;
#X floatatom 291 150 5 0 0 1 threshold - -, f 5;
#N canvas 0 23 450 300 miniscope~ 0;
#X obj 19 163 inlet~;
#N canvas 0 22 450 300 (subpatch) 0;
#X array trisaw 1024 float 0;
#X coords 0 1 1023 -1 202 61 1;
#X restore 202 128 graph;
#X obj 39 210 bang~;
#X obj 19 247 tabwrite~ trisaw;
#X obj 202 79 switch~ 1024 1 1;
#X obj 202 59 inlet;
#N canvas 0 22 450 300 (subpatch) 0;
#X array PWM 1024 float 0;
#X coords 0 1 1023 -1 202 61 1;
#X restore 406 128 graph;
#X obj 129 163 inlet~;
#X obj 149 210 bang~;
#X obj 129 247 tabwrite~ PWM;
#X connect 0 0 3 0;
#X connect 2 0 3 0;
#X connect 5 0 4 0;
#X connect 7 0 9 0;
#X connect 8 0 9 0;
#X coords 0 -1 1 1 410 81 2 200 110;
#X restore 146 262 pd miniscope~;
#X msg 562 262 1;
#X obj 567 237 loadbang;
#X text 373 112 it also generates continuously variable duty cycle
pulse waveforms from the trisaw wave.;
#X obj 211 176 pack f 20;
#X obj 291 176 pack f 20;
#X obj 211 198 line~;
#X obj 291 198 line~;
#X text 572 592 (c) 2012 Edward Kelly;
#X msg 36 62 90;
#X text 373 85 wavefolder~ derives continuously variable sawtooth -
to triangle shaped waveforms from phasor~ input.;
#X text 360 191 inlets: signal(phasor~ output) \, trisaw shape \, pulse
threshold;
#X text 361 220 outlets: trisaw wave \, pulse wave;
#N canvas 733 427 450 300 trisaw_spectrum~ 0;
#N canvas 0 22 450 300 (subpatch) 0;
#X array trisaw_spectrum 128 float 1;
#A 0 0 0 0 0 0 0 0 0 0 0 0 0 0 0 0 0 0 0 0 0 0 0 0 0 0 0 0 0 0 0 0
0 0 0 0 0 0 0 0 0 0 0 0 0 0 0 0 0 0 0 0 0 0 0 0 0 0 0 0 0 0 0 0 0 0
0 0 0 0 0 0 0 0 0 0 0 0 0 0 0 0 0 0 0 0 0 0 0 0 0 0 0 0 0 0 0 0 0 0
0 0 0 0 0 0 0 0 0 0 0 0 0 0 0 0 0 0 0 0 0 0 0 0 0 0 0 0 0;
#X coords 0 250 127 0 192 81 1;
#X restore 106 118 graph;
#N canvas 0 23 450 300 fft_analysis 0;
#X obj 92 36 inlet~;
#X obj 92 73 rfft~;
#X obj 189 120 bang~;
#X obj 231 97 block~ 1024 4 1;
#X obj 93 175 clip~ 0 250;
#X obj 93 211 tabwrite~ trisaw_spectrum;
#X obj 75 106 *~;
#X obj 114 106 *~;
#X obj 75 127 sqrt~;
#X connect 0 0 1 0;
#X connect 1 0 6 0;
#X connect 1 0 6 1;
#X connect 1 1 7 0;
#X connect 1 1 7 1;
#X connect 2 0 5 0;
#X connect 4 0 5 0;
#X connect 6 0 8 0;
#X connect 7 0 8 0;
#X connect 8 0 4 0;
#X restore 166 53 pd fft_analysis;
#X obj 166 17 inlet~;
#X text 104 198 0--------------Hz-----------5012;
#X connect 2 0 1 0;
#X coords 0 -1 1 1 204 114 2 100 100;
#X restore 593 259 pd trisaw_spectrum~;
#X obj 136 506 wavestretcher~;
#X obj 173 407 * 0.01;
#X floatatom 173 388 5 -100 100 1 - - -, f 5;
#X floatatom 173 428 5 0 0 1 breakpoint - -, f 5;
#X obj 272 407 * 0.01;
#X floatatom 272 388 5 -100 100 1 PWM - -, f 5;
#X floatatom 272 428 5 0 0 1 squash_stretch - -, f 5;
#X obj 173 454 pack f 20;
#X obj 272 454 pack f 20;
#X obj 173 476 line~;
#X obj 272 476 line~;
#N canvas 0 22 450 300 miniscope~ 0;
#X obj 19 163 inlet~;
#N canvas 0 22 450 300 (subpatch) 0;
#X array wavestretch 1024 float 0;
#X coords 0 1 1023 -1 202 61 1;
#X restore 202 128 graph;
#X obj 39 210 bang~;
#X obj 202 79 switch~ 1024 1 1;
#X obj 202 59 inlet;
#X obj 19 247 tabwrite~ wavestretch;
#X connect 0 0 5 0;
#X connect 2 0 5 0;
#X connect 4 0 3 0;
#X coords 0 -1 1 1 206 81 2 200 110;
#X restore 137 554 pd miniscope~;
#X msg 343 489 1;
#X obj 348 464 loadbang;
#N canvas 733 427 450 300 trisaw_spectrum~ 0;
#N canvas 0 22 450 300 (subpatch) 0;
#X array stretch_spectrum 128 float 1;
#A 0 0 0 0 0 0 0 0 0 0 0 0 0 0 0 0 0 0 0 0 0 0 0 0 0 0 0 0 0 0 0 0
0 0 0 0 0 0 0 0 0 0 0 0 0 0 0 0 0 0 0 0 0 0 0 0 0 0 0 0 0 0 0 0 0 0
0 0 0 0 0 0 0 0 0 0 0 0 0 0 0 0 0 0 0 0 0 0 0 0 0 0 0 0 0 0 0 0 0 0
0 0 0 0 0 0 0 0 0 0 0 0 0 0 0 0 0 0 0 0 0 0 0 0 0 0 0 0 0;
#X coords 0 250 127 0 192 81 1;
#X restore 106 118 graph;
#N canvas 0 23 450 300 fft_analysis 0;
#X obj 92 36 inlet~;
#X obj 97 78 rfft~;
#X obj 189 120 bang~;
#X obj 231 97 block~ 1024 4 1;
#X obj 93 175 clip~ 0 250;
#X obj 93 211 tabwrite~ stretch_spectrum;
#X obj 91 109 *~;
#X obj 126 109 *~;
#X obj 91 130 sqrt~;
#X connect 0 0 1 0;
#X connect 1 0 6 0;
#X connect 1 0 6 1;
#X connect 1 1 7 0;
#X connect 1 1 7 1;
#X connect 2 0 5 0;
#X connect 4 0 5 0;
#X connect 6 0 8 0;
#X connect 7 0 8 0;
#X connect 8 0 4 0;
#X restore 166 53 pd fft_analysis;
#X obj 166 17 inlet~;
#X text 104 198 0--------------Hz-----------5012;
#X connect 2 0 1 0;
#X coords 0 -1 1 1 204 114 2 100 100;
#X restore 359 528 pd trisaw_spectrum~;
#X text 407 378 wavestretcher~ derives a waveform from a triangle/sawtooth
wave input that morphs between different shapes.;
#X text 409 405 with the breakpoint at -1 \, the stretch factor morphs
between a square and a sawtooth wave \, and with the breakpoint at
e.g. 0.99 \, the stretch factor morphs between a sawtooth and alternate
pulse-train style waveforms.;
#X text 420 457 various flavours of pulse/saw/trapezoid waveforms may
be seamlessly morphed between.;
#X obj 55 550 *~;
#X obj 70 529 dbtorms;
#X obj 70 422 vsl 22 101 0 100 0 0 empty empty stretched 0 -9 0 10
-262144 -1 -1 0 1;
#X obj 49 585 dac~;
#X text 212 4 wavefolder~ and wavestretcher~ extend the spectral modulations
typically found in Pulse-Width Modulation \, providing a variety of
waveshape modulations not found in traditional subtractive synthesis
methods.;
#X obj 117 759 wavecutter~;
#X obj 153 659 * 0.01;
#X floatatom 153 640 5 0 100 1 - - -, f 5;
#X floatatom 153 680 5 0 0 1 breakpoint - -, f 5;
#X obj 252 659 * 0.01;
#X floatatom 252 640 5 -100 100 1 Negative - -, f 5;
#X floatatom 252 680 5 0 0 1 squash_stretch - -, f 5;
#X obj 153 706 pack f 20;
#X obj 252 706 pack f 20;
#X obj 153 728 line~;
#X obj 252 728 line~;
#N canvas 4 55 450 300 miniscope~ 0;
#X obj 19 163 inlet~;
#N canvas 0 22 450 300 (subpatch) 0;
#X array wavecut 1024 float 0;
#X coords 0 1 1023 -1 202 61 1;
#X restore 202 128 graph;
#X obj 39 210 bang~;
#X obj 202 79 switch~ 1024 1 1;
#X obj 202 59 inlet;
#X obj 19 247 tabwrite~ wavecut;
#X connect 0 0 5 0;
#X connect 2 0 5 0;
#X connect 4 0 3 0;
#X coords 0 -1 1 1 206 81 2 200 110;
#X restore 79 822 pd miniscope~;
#N canvas 734 429 450 300 trisaw_spectrum~ 0;
#N canvas 0 22 450 300 (subpatch) 0;
#X array cut_spectrum 128 float 1;
#A 0 0 0 0 0 0 0 0 0 0 0 0 0 0 0 0 0 0 0 0 0 0 0 0 0 0 0 0 0 0 0 0
0 0 0 0 0 0 0 0 0 0 0 0 0 0 0 0 0 0 0 0 0 0 0 0 0 0 0 0 0 0 0 0 0 0
0 0 0 0 0 0 0 0 0 0 0 0 0 0 0 0 0 0 0 0 0 0 0 0 0 0 0 0 0 0 0 0 0 0
0 0 0 0 0 0 0 0 0 0 0 0 0 0 0 0 0 0 0 0 0 0 0 0 0 0 0 0 0;
#X coords 0 250 127 0 192 81 1;
#X restore 106 118 graph;
#N canvas 4 55 450 300 fft_analysis 0;
#X obj 92 36 inlet~;
#X obj 92 73 rfft~;
#X obj 189 120 bang~;
#X obj 231 97 block~ 1024 4 1;
#X obj 93 175 clip~ 0 250;
#X obj 93 211 tabwrite~ cut_spectrum;
#X obj 91 109 *~;
#X obj 131 109 *~;
#X obj 91 130 sqrt~;
#X connect 0 0 1 0;
#X connect 1 0 6 0;
#X connect 1 0 6 1;
#X connect 1 1 7 0;
#X connect 1 1 7 1;
#X connect 2 0 5 0;
#X connect 4 0 5 0;
#X connect 6 0 8 0;
#X connect 7 0 8 0;
#X connect 8 0 4 0;
#X restore 166 53 pd fft_analysis;
#X obj 166 17 inlet~;
#X text 104 198 0--------------Hz-----------5012;
#X connect 2 0 1 0;
#X coords 0 -1 1 1 204 114 2 100 100;
#X restore 301 796 pd trisaw_spectrum~;
#X msg 253 794 1;
#X obj 25 797 *~;
#X obj 40 776 dbtorms;
#X obj 40 669 vsl 22 101 0 100 0 0 empty empty cut 0 -9 0 10 -262144
-1 -1 0 1;
#X obj 19 832 dac~;
#N canvas 303 130 489 373 META 0;
#X text 12 195 HELP_PATCH_AUTHORS Ed Kelly. Revised by Jonathan Wilkes
for Pd-extended 0.42 to conform to the PDDP template.;
#X text 12 5 KEYWORDS signal needs_work (example patch);
#X text 12 45 DESCRIPTION highest apparent spectral component \, according
to amplitude threshold;
#X text 12 75 INLET_0 signal;
#X text 12 95 INLET_1 signal;
#X text 12 175 AUTHOR Ed Kelly <morph_2016@yahoo.co.uk>;
#X text 12 25 LICENSE GPL v3;
#X text 12 115 INLET_2 signal;
#X text 12 135 OUTLET_0 signal;
#X text 12 155 OUTLET_1 signal;
#X restore 808 891 pd META;
#X obj 611 65 switch~;
#X obj 610 20 inlet;
#X connect 0 0 11 0;
#X connect 1 0 0 0;
#X connect 2 0 1 0;
#X connect 3 0 2 0;
#X connect 4 0 10 0;
#X connect 4 0 9 0;
#X connect 4 0 32 0;
#X connect 5 0 6 0;
#X connect 5 0 6 1;
#X connect 7 0 11 0;
#X connect 8 0 7 0;
#X connect 9 0 8 0;
#X connect 10 0 3 0;
#X connect 11 0 5 0;
#X connect 11 0 23 0;
#X connect 11 0 36 0;
#X connect 11 0 37 0;
#X connect 11 0 60 0;
#X connect 11 1 12 0;
#X connect 11 1 23 1;
#X connect 12 0 6 0;
#X connect 12 0 6 1;
#X connect 13 0 5 1;
#X connect 14 0 13 0;
#X connect 15 0 12 1;
#X connect 16 0 15 0;
#X connect 17 0 19 0;
#X connect 18 0 17 0;
#X connect 19 0 27 0;
#X connect 20 0 22 0;
#X connect 21 0 20 0;
#X connect 22 0 28 0;
#X connect 24 0 23 2;
#X connect 25 0 24 0;
#X connect 27 0 29 0;
#X connect 28 0 30 0;
#X connect 29 0 11 1;
#X connect 30 0 11 2;
#X connect 32 0 14 0;
#X connect 37 0 48 0;
#X connect 37 0 51 0;
#X connect 37 0 55 0;
#X connect 38 0 40 0;
#X connect 39 0 38 0;
#X connect 40 0 44 0;
#X connect 41 0 43 0;
#X connect 42 0 41 0;
#X connect 43 0 45 0;
#X connect 44 0 46 0;
#X connect 45 0 47 0;
#X connect 46 0 37 1;
#X connect 47 0 37 2;
#X connect 49 0 48 1;
#X connect 50 0 49 0;
#X connect 55 0 58 0;
#X connect 55 0 58 1;
#X connect 56 0 55 1;
#X connect 57 0 56 0;
#X connect 60 0 71 0;
#X connect 60 0 72 0;
#X connect 60 0 74 0;
#X connect 61 0 63 0;
#X connect 62 0 61 0;
#X connect 63 0 67 0;
#X connect 64 0 66 0;
#X connect 65 0 64 0;
#X connect 66 0 68 0;
#X connect 67 0 69 0;
#X connect 68 0 70 0;
#X connect 69 0 60 1;
#X connect 70 0 60 2;
#X connect 73 0 71 1;
#X connect 74 0 77 0;
#X connect 74 0 77 1;
#X connect 75 0 74 1;
#X connect 76 0 75 0;
#X connect 80 0 79 0;
